<svg width="465" height="393" viewBox="0 0 465 393" fill="none" xmlns="http://www.w3.org/2000/svg">
<path d="M443.833 51.7881C442.637 61.8902 441.669 62.8584 431.567 64.0537C431.59 64.0565 431.61 64.0594 431.63 64.0622H431.632C441.672 65.2547 442.64 66.2399 443.833 76.3193C445.028 66.2172 445.999 65.249 456.098 64.0537C445.999 62.8584 445.028 61.8902 443.833 51.7881Z" fill="#8961CB"/>
<path d="M219.187 0C219.19 0 219.193 1.16844e-08 219.196 0.000182525C219.501 0.00146021 219.778 0.126672 219.979 0.327449C220.18 0.528956 220.305 0.807853 220.306 1.11522H220.306V5.0176H224.209C224.515 5.0176 224.794 5.14318 224.996 5.34505C225.197 5.54619 225.323 5.82344 225.324 6.12863C225.324 6.13191 225.324 6.13501 225.324 6.13812C225.322 6.44293 225.197 6.71964 224.996 6.9206C224.795 7.12211 224.516 7.24714 224.209 7.24714V7.24805H220.306V11.1504C220.306 11.4572 220.181 11.7363 219.979 11.9382C219.778 12.1392 219.5 12.2646 219.195 12.2655C219.192 12.2656 219.189 12.2656 219.186 12.2655C218.881 12.2642 218.604 12.139 218.403 11.9382C218.202 11.7367 218.077 11.4578 218.077 11.1504H218.076V7.24805H214.173C213.867 7.24805 213.588 7.12247 213.386 6.9206C213.185 6.71946 213.059 6.4422 213.058 6.13702C213.058 6.13374 213.058 6.13063 213.058 6.12753C213.06 5.82271 213.185 5.54583 213.386 5.34505C213.587 5.14354 213.866 5.01851 214.173 5.01851V5.0176H218.076V1.11522C218.076 0.808401 218.201 0.529321 218.403 0.327449C218.604 0.126307 218.882 0.00109517 219.187 0Z" fill="url(#paint0_linear_111_283)"/>
<path d="M196.694 14.0826C196.702 14.0826 196.709 14.0826 196.716 14.0831C197.416 14.086 198.052 14.3735 198.513 14.8346C198.975 15.2973 199.262 15.9377 199.263 16.6435H199.265V25.6045H208.226C208.93 25.6045 209.571 25.8929 210.035 26.3565C210.496 26.8183 210.784 27.455 210.786 28.1558C210.786 28.1633 210.786 28.1705 210.786 28.1776C210.783 28.8775 210.496 29.5129 210.035 29.9744C209.572 30.4371 208.931 30.7242 208.226 30.7242V30.7263H199.265V39.6873C199.265 40.3919 198.976 41.0327 198.513 41.4963C198.051 41.9577 197.414 42.2457 196.713 42.2478C196.706 42.2482 196.699 42.2482 196.691 42.2478C195.992 42.2448 195.356 41.9573 194.895 41.4963C194.432 41.0336 194.145 40.3931 194.145 39.6873H194.143V30.7263H185.182C184.477 30.7263 183.837 30.4379 183.373 29.9744C182.911 29.5125 182.623 28.8758 182.621 28.1751C182.621 28.1675 182.621 28.1604 182.621 28.1533C182.624 27.4533 182.912 26.8175 183.373 26.3565C183.836 25.8937 184.476 25.6066 185.182 25.6066V25.6045H194.143V16.6435C194.143 15.939 194.431 15.2981 194.895 14.8346C195.357 14.3727 195.993 14.0852 196.694 14.0826Z" fill="url(#paint1_linear_111_283)"/>
<mask id="mask0_111_283" style="mask-type:luminance" maskUnits="userSpaceOnUse" x="0" y="186" width="425" height="207">
<path d="M18.1395 186.71L424.816 233.142L406.677 392.017L2.48528e-05 345.585L18.1395 186.71Z" fill="white"/>
</mask>
<g mask="url(#mask0_111_283)">
<g filter="url(#filter0_i_111_283)">
<path d="M421.29 246.968C415.631 240.346 400.609 232.901 361.623 249.125C344.629 257.216 335.307 262.599 330.566 265.621C327.519 267.555 323.952 268.503 320.349 268.343C301.105 267.491 240.141 266.433 219.525 263.666C216.521 263.26 215.969 259.068 218.17 257.708C219.824 256.693 222.221 256.375 225.656 255.715C237.795 253.386 302.91 261.129 304.272 236.548C305.577 212.976 257.883 216.275 243.68 217.657C238.177 218.191 232.082 218.405 226.478 218.446C226.478 218.446 206.278 217.034 196.656 213.534C176.661 205.782 134.301 192.076 104.368 211.186C80.2557 226.576 69.1185 237.267 64.1116 243.216C60.7326 247.236 56.3729 250.313 51.4799 252.193L9.7734 275.014C7.57992 276.213 6.99358 279.103 8.55395 281.065L46.6603 329.101L64.6525 351.779C66.1854 353.707 69.0662 353.821 70.7424 352.019C80.8046 341.21 115.917 310.189 180.656 319.711C258.637 331.178 259.317 329.712 277.527 322.566C291.82 316.96 325.181 309.121 338.887 305.997C342.921 305.086 346.759 303.463 350.229 301.211L419.822 256.12C423.031 254.179 423.728 249.816 421.29 246.968Z" fill="url(#paint2_linear_111_283)"/>
</g>
</g>
<path d="M430.194 139.464C430.202 139.464 430.21 139.464 430.218 139.464C430.985 139.468 431.683 139.783 432.188 140.289C432.696 140.796 433.011 141.499 433.011 142.273H433.013V152.101H442.841C443.614 152.101 444.316 152.417 444.825 152.926C445.331 153.432 445.647 154.13 445.65 154.899C445.65 154.907 445.65 154.915 445.65 154.923C445.646 155.691 445.331 156.388 444.825 156.894C444.318 157.401 443.615 157.716 442.841 157.716V157.718H433.013V167.547C433.013 168.319 432.697 169.022 432.188 169.531C431.682 170.037 430.983 170.352 430.215 170.355C430.207 170.355 430.199 170.355 430.191 170.355C429.423 170.352 428.726 170.036 428.22 169.531C427.713 169.023 427.398 168.321 427.398 167.547H427.396V157.718H417.567C416.795 157.718 416.092 157.402 415.583 156.894C415.077 156.387 414.761 155.689 414.759 154.92C414.759 154.912 414.759 154.904 414.759 154.896C414.762 154.129 415.078 153.431 415.583 152.926C416.091 152.418 416.793 152.103 417.567 152.103V152.101H427.396V142.273C427.396 141.5 427.712 140.797 428.22 140.289C428.727 139.782 429.425 139.467 430.194 139.464Z" fill="url(#paint3_linear_111_283)"/>
<mask id="mask1_111_283" style="mask-type:luminance" maskUnits="userSpaceOnUse" x="201" y="42" width="253" height="136">
<path d="M201.866 51.8047L449.387 42.7002L453.997 168.036L206.476 177.141L201.866 51.8047Z" fill="white"/>
</mask>
<g mask="url(#mask1_111_283)">
<mask id="mask2_111_283" style="mask-type:luminance" maskUnits="userSpaceOnUse" x="187" y="19" width="282" height="182">
<path d="M187.124 97.7102L428.496 19.3147L468.783 122.018L227.411 200.414L187.124 97.7102Z" fill="white"/>
</mask>
<g mask="url(#mask2_111_283)">
<mask id="mask3_111_283" style="mask-type:luminance" maskUnits="userSpaceOnUse" x="187" y="19" width="283" height="182">
<path d="M187.131 97.7071L428.759 19.232L469.046 121.936L227.418 200.411L187.131 97.7071Z" fill="white"/>
</mask>
<g mask="url(#mask3_111_283)">
<mask id="mask4_111_283" style="mask-type:luminance" maskUnits="userSpaceOnUse" x="205" y="45" width="246" height="130">
<path d="M307.809 58.5121C241.159 80.1596 196.148 120.697 207.272 149.059C218.398 177.42 281.446 182.863 348.096 161.216C414.746 139.568 459.76 99.0305 448.634 70.6692C437.51 42.3079 374.459 36.8647 307.809 58.5121Z" fill="white"/>
</mask>
<g mask="url(#mask4_111_283)">
<path d="M307.81 58.512C241.16 80.1595 196.149 120.697 207.272 149.059C218.399 177.42 281.447 182.863 348.097 161.216C414.747 139.568 459.761 99.0303 448.635 70.6691C437.511 42.3077 374.46 36.8645 307.81 58.512Z" stroke="#8961CB" stroke-width="10"/>
</g>
</g>
</g>
</g>
<path d="M221.689 144.916C220.14 156.701 218.885 157.831 205.789 159.225C205.819 159.229 205.844 159.232 205.87 159.235H205.874C218.888 160.627 220.143 161.776 221.689 173.535C223.239 161.753 224.497 160.62 237.589 159.225C224.497 157.831 223.239 156.701 221.689 144.916Z" fill="#8961CB"/>
<g filter="url(#filter1_ii_111_283)">
<path d="M426.74 61.0693C414.376 -2.56135 336.879 -3.62538 317.77 55.8587C298.66 -3.62271 221.162 -2.56135 208.801 61.0693C197.581 118.8 317.77 209.878 317.77 209.878C317.77 209.878 437.957 118.8 426.74 61.0693Z" fill="url(#paint4_linear_111_283)"/>
</g>
<g filter="url(#filter2_ii_111_283)">
<path d="M426.74 61.0693C414.376 -2.56135 336.879 -3.62538 317.77 55.8587C298.66 -3.62271 221.162 -2.56135 208.801 61.0693C197.581 118.8 317.77 209.878 317.77 209.878C317.77 209.878 437.957 118.8 426.74 61.0693Z" fill="url(#paint5_linear_111_283)"/>
<path d="M426.74 61.0693C414.376 -2.56135 336.879 -3.62538 317.77 55.8587C298.66 -3.62271 221.162 -2.56135 208.801 61.0693C197.581 118.8 317.77 209.878 317.77 209.878C317.77 209.878 437.957 118.8 426.74 61.0693Z" fill="url(#paint6_linear_111_283)"/>
</g>
<path d="M328.113 59.7863L329.541 64.226L330.969 59.7862C340.119 31.3342 363.162 17.5041 385.28 18.2475C407.362 18.9897 428.777 34.2685 434.699 64.7063C437.337 78.2712 432.268 94.0159 422.844 110.196C413.446 126.332 399.864 142.653 385.888 157.267C371.92 171.872 357.603 184.727 346.774 193.933C341.36 198.535 336.822 202.223 333.638 204.759C332.046 206.027 330.793 207.007 329.94 207.669C329.795 207.781 329.662 207.884 329.541 207.977C329.419 207.884 329.286 207.781 329.142 207.669C328.288 207.007 327.035 206.027 325.443 204.759C322.259 202.223 317.721 198.535 312.307 193.933C301.478 184.727 287.161 171.872 273.193 157.267C259.216 142.653 245.634 126.332 236.236 110.196C226.813 94.0159 221.743 78.2712 224.383 64.7063L224.383 64.7062C230.303 34.2685 251.717 18.9903 273.799 18.2484C295.917 17.5053 318.961 31.3355 328.113 59.7863Z" stroke="#C4ABEC" stroke-width="3"/>
<mask id="mask5_111_283" style="mask-type:alpha" maskUnits="userSpaceOnUse" x="243" y="126" width="172" height="57">
<rect x="243.495" y="126.744" width="171.264" height="55.8766" fill="#D9D9D9"/>
</mask>
<g mask="url(#mask5_111_283)">
<mask id="mask6_111_283" style="mask-type:luminance" maskUnits="userSpaceOnUse" x="201" y="42" width="253" height="136">
<path d="M201.866 51.8044L449.387 42.7L453.997 168.036L206.476 177.141L201.866 51.8044Z" fill="white"/>
</mask>
<g mask="url(#mask6_111_283)">
<mask id="mask7_111_283" style="mask-type:luminance" maskUnits="userSpaceOnUse" x="187" y="19" width="282" height="182">
<path d="M187.124 97.7101L428.496 19.3145L468.783 122.018L227.411 200.414L187.124 97.7101Z" fill="white"/>
</mask>
<g mask="url(#mask7_111_283)">
<mask id="mask8_111_283" style="mask-type:luminance" maskUnits="userSpaceOnUse" x="187" y="19" width="283" height="182">
<path d="M187.131 97.7069L428.759 19.2319L469.046 121.936L227.418 200.411L187.131 97.7069Z" fill="white"/>
</mask>
<g mask="url(#mask8_111_283)">
<mask id="mask9_111_283" style="mask-type:luminance" maskUnits="userSpaceOnUse" x="205" y="45" width="246" height="130">
<path d="M307.809 58.5121C241.159 80.1596 196.148 120.697 207.271 149.059C218.398 177.42 281.446 182.863 348.096 161.216C414.746 139.568 459.76 99.0305 448.634 70.6692C437.51 42.3079 374.459 36.8647 307.809 58.5121Z" fill="white"/>
</mask>
<g mask="url(#mask9_111_283)">
<path d="M307.81 58.512C241.16 80.1595 196.149 120.697 207.272 149.059C218.399 177.42 281.447 182.863 348.097 161.216C414.747 139.568 459.761 99.0303 448.635 70.6691C437.511 42.3077 374.46 36.8645 307.81 58.512Z" stroke="#8961CB" stroke-width="10"/>
</g>
</g>
</g>
</g>
</g>
<defs>
<filter id="filter0_i_111_283" x="7.67548" y="201.487" width="415.076" height="177.813" filterUnits="userSpaceOnUse" color-interpolation-filters="sRGB">
<feFlood flood-opacity="0" result="BackgroundImageFix"/>
<feBlend mode="normal" in="SourceGraphic" in2="BackgroundImageFix" result="shape"/>
<feColorMatrix in="SourceAlpha" type="matrix" values="0 0 0 0 0 0 0 0 0 0 0 0 0 0 0 0 0 0 127 0" result="hardAlpha"/>
<feOffset dy="26"/>
<feGaussianBlur stdDeviation="17.5"/>
<feComposite in2="hardAlpha" operator="arithmetic" k2="-1" k3="1"/>
<feColorMatrix type="matrix" values="0 0 0 0 0 0 0 0 0 0 0 0 0 0 0 0 0 0 0.25 0"/>
<feBlend mode="normal" in2="shape" result="effect1_innerShadow_111_283"/>
</filter>
<filter id="filter1_ii_111_283" x="208.061" y="-2.73401" width="245.418" height="226.612" filterUnits="userSpaceOnUse" color-interpolation-filters="sRGB">
<feFlood flood-opacity="0" result="BackgroundImageFix"/>
<feBlend mode="normal" in="SourceGraphic" in2="BackgroundImageFix" result="shape"/>
<feColorMatrix in="SourceAlpha" type="matrix" values="0 0 0 0 0 0 0 0 0 0 0 0 0 0 0 0 0 0 127 0" result="hardAlpha"/>
<feOffset dx="26" dy="14"/>
<feGaussianBlur stdDeviation="15.5"/>
<feComposite in2="hardAlpha" operator="arithmetic" k2="-1" k3="1"/>
<feColorMatrix type="matrix" values="0 0 0 0 0 0 0 0 0 0 0 0 0 0 0 0 0 0 0.1 0"/>
<feBlend mode="normal" in2="shape" result="effect1_innerShadow_111_283"/>
<feColorMatrix in="SourceAlpha" type="matrix" values="0 0 0 0 0 0 0 0 0 0 0 0 0 0 0 0 0 0 127 0" result="hardAlpha"/>
<feOffset dx="17" dy="-15"/>
<feGaussianBlur stdDeviation="16"/>
<feComposite in2="hardAlpha" operator="arithmetic" k2="-1" k3="1"/>
<feColorMatrix type="matrix" values="0 0 0 0 0 0 0 0 0 0 0 0 0 0 0 0 0 0 0.07 0"/>
<feBlend mode="normal" in2="effect1_innerShadow_111_283" result="effect2_innerShadow_111_283"/>
</filter>
<filter id="filter2_ii_111_283" x="208.061" y="-2.73401" width="244.418" height="226.612" filterUnits="userSpaceOnUse" color-interpolation-filters="sRGB">
<feFlood flood-opacity="0" result="BackgroundImageFix"/>
<feBlend mode="normal" in="SourceGraphic" in2="BackgroundImageFix" result="shape"/>
<feColorMatrix in="SourceAlpha" type="matrix" values="0 0 0 0 0 0 0 0 0 0 0 0 0 0 0 0 0 0 127 0" result="hardAlpha"/>
<feOffset dx="26" dy="14"/>
<feGaussianBlur stdDeviation="12"/>
<feComposite in2="hardAlpha" operator="arithmetic" k2="-1" k3="1"/>
<feColorMatrix type="matrix" values="0 0 0 0 0 0 0 0 0 0 0 0 0 0 0 0 0 0 0.1 0"/>
<feBlend mode="normal" in2="shape" result="effect1_innerShadow_111_283"/>
<feColorMatrix in="SourceAlpha" type="matrix" values="0 0 0 0 0 0 0 0 0 0 0 0 0 0 0 0 0 0 127 0" result="hardAlpha"/>
<feOffset dx="53" dy="-15"/>
<feGaussianBlur stdDeviation="12.5"/>
<feComposite in2="hardAlpha" operator="arithmetic" k2="-1" k3="1"/>
<feColorMatrix type="matrix" values="0 0 0 0 0 0 0 0 0 0 0 0 0 0 0 0 0 0 0.07 0"/>
<feBlend mode="normal" in2="effect1_innerShadow_111_283" result="effect2_innerShadow_111_283"/>
</filter>
<linearGradient id="paint0_linear_111_283" x1="219.191" y1="0" x2="219.191" y2="12.2656" gradientUnits="userSpaceOnUse">
<stop offset="0.432292" stop-color="#A49CD7"/>
<stop offset="1" stop-color="#F050FC"/>
</linearGradient>
<linearGradient id="paint1_linear_111_283" x1="196.704" y1="14.0826" x2="196.704" y2="42.2481" gradientUnits="userSpaceOnUse">
<stop offset="0.432292" stop-color="#A49CD7"/>
<stop offset="1" stop-color="#F050FC"/>
</linearGradient>
<linearGradient id="paint2_linear_111_283" x1="221.474" y1="209.962" x2="203.338" y2="368.802" gradientUnits="userSpaceOnUse">
<stop stop-color="#415CA9"/>
<stop offset="0.453125" stop-color="#A49CD7"/>
<stop offset="1" stop-color="#BDC6ED"/>
</linearGradient>
<linearGradient id="paint3_linear_111_283" x1="430.204" y1="139.464" x2="430.204" y2="170.355" gradientUnits="userSpaceOnUse">
<stop offset="0.432292" stop-color="#A49CD7"/>
<stop offset="1" stop-color="#F050FC"/>
</linearGradient>
<linearGradient id="paint4_linear_111_283" x1="317.77" y1="12.266" x2="320.042" y2="253.489" gradientUnits="userSpaceOnUse">
<stop stop-color="#415CA9"/>
<stop offset="0.0001" stop-color="#415CA9"/>
<stop offset="0.380208" stop-color="#A49CD7"/>
<stop offset="0.551828" stop-color="#A89EE1"/>
<stop offset="1" stop-color="#F050FC"/>
</linearGradient>
<linearGradient id="paint5_linear_111_283" x1="317.77" y1="12.266" x2="286.643" y2="246.605" gradientUnits="userSpaceOnUse">
<stop stop-color="#E954F9"/>
<stop offset="0.771619" stop-color="#523CB0"/>
</linearGradient>
<linearGradient id="paint6_linear_111_283" x1="443.934" y1="142.552" x2="308.202" y2="76.5555" gradientUnits="userSpaceOnUse">
<stop offset="0.113179" stop-color="#CFEBFA"/>
<stop offset="1" stop-color="#CFEBFA" stop-opacity="0"/>
</linearGradient>
</defs>
</svg>
