<svg width="493" height="396" viewBox="0 0 493 396" fill="none" xmlns="http://www.w3.org/2000/svg">
<g clip-path="url(#clip0_118_835)">
<path opacity="0.3" d="M472.943 45.9242L462.606 61.1137L444.423 58.4781L452.269 76.3033L480.789 63.7494L472.943 45.9242ZM471.374 42.3592L442.853 54.913L461.029 57.5309L471.374 42.3592Z" fill="url(#paint0_linear_118_835)"/>
<path d="M453.838 79.8684L482.358 67.3146C484.319 66.4515 485.217 64.1411 484.354 62.1803L474.939 40.7901C474.076 38.8293 471.765 37.9312 469.804 38.7943L441.284 51.3481C439.323 52.2112 438.425 54.5216 439.288 56.4824L448.704 77.8726C449.567 79.8334 451.877 80.7315 453.838 79.8684ZM471.374 42.3593L461.029 57.531L442.853 54.9132L471.374 42.3593ZM444.423 58.4782L462.606 61.1139L472.943 45.9243L480.789 63.7495L452.269 76.3034L444.423 58.4782Z" fill="url(#paint1_linear_118_835)"/>
</g>
<g filter="url(#filter0_d_118_835)">
<path d="M258.792 42.738C227.988 42.738 197.876 51.8724 172.264 68.986C146.652 86.0995 126.689 110.424 114.901 138.883C103.113 167.341 100.029 198.657 106.038 228.868C112.048 259.08 126.881 286.832 148.663 308.613C170.444 330.394 198.195 345.228 228.407 351.237C258.619 357.247 289.934 354.163 318.393 342.374C346.852 330.586 371.176 310.624 388.29 285.012C405.403 259.4 414.538 229.288 414.538 198.484C414.489 157.192 398.065 117.606 368.867 88.4085C339.67 59.211 300.083 42.7865 258.792 42.738ZM383.343 140.461H321.991C315.314 112.769 303.138 86.7014 286.185 63.8095C307.231 68.1346 326.976 77.3173 343.844 90.6255C360.713 103.934 374.238 120.999 383.343 140.461ZM396.215 198.484C396.225 211.933 394.254 225.309 390.366 238.184H325.762C330.12 211.897 330.12 185.071 325.762 158.784H390.366C394.254 171.658 396.225 185.035 396.215 198.484ZM258.792 335.907C258.411 335.909 258.034 335.83 257.687 335.674C257.339 335.519 257.029 335.291 256.776 335.006C237.109 313.828 222.665 286.633 214.511 256.507H303.072C294.919 286.633 280.474 313.828 260.807 335.006C260.555 335.291 260.244 335.519 259.897 335.674C259.549 335.83 259.172 335.909 258.792 335.907ZM210.404 238.184C205.701 211.926 205.701 185.042 210.404 158.784H307.18C311.883 185.042 311.883 211.926 307.18 238.184H210.404ZM121.369 198.484C121.358 185.035 123.329 171.658 127.217 158.784H191.821C187.464 185.071 187.464 211.897 191.821 238.184H127.217C123.329 225.309 121.358 211.933 121.369 198.484ZM258.792 61.0611C259.172 61.059 259.549 61.1383 259.897 61.2936C260.244 61.449 260.555 61.6769 260.807 61.962C280.474 83.1404 294.919 110.335 303.072 140.461H214.511C222.665 110.335 237.109 83.1404 256.776 61.962C257.029 61.6769 257.339 61.449 257.687 61.2936C258.034 61.1383 258.411 61.059 258.792 61.0611ZM231.399 63.8095C214.446 86.7014 202.269 112.769 195.592 140.461H134.241C143.345 120.999 156.871 103.934 173.739 90.6255C190.608 77.3173 210.352 68.1346 231.399 63.8095ZM134.241 256.507H195.592C202.269 284.199 214.446 310.267 231.399 333.158C210.352 328.833 190.608 319.651 173.739 306.342C156.871 293.034 143.345 275.969 134.241 256.507ZM286.185 333.158C303.138 310.267 315.314 284.199 321.991 256.507H383.343C374.238 275.969 360.713 293.034 343.844 306.342C326.976 319.651 307.231 328.833 286.185 333.158Z" fill="url(#paint2_linear_118_835)"/>
</g>
<path d="M375.957 141.064H376.743L376.41 140.352C367.272 120.82 353.698 103.692 336.768 90.3361C319.838 76.9796 300.022 67.7636 278.9 63.4229L277.619 63.1598L278.397 64.2103C295.31 87.0483 307.458 113.054 314.119 140.681L314.211 141.064H314.605H375.957ZM382.981 238.787H383.352L383.459 238.432C387.361 225.51 389.339 212.085 389.329 198.587C389.339 185.09 387.361 171.664 383.459 158.743L383.352 158.387H382.981H318.377H317.787L317.883 158.969C322.232 185.202 322.232 211.972 317.883 238.205L317.787 238.787H318.377H382.981ZM207.125 256.11H206.472L206.643 256.741C214.814 286.934 229.294 314.202 249.021 335.446C249.319 335.782 249.686 336.05 250.097 336.234C250.509 336.418 250.955 336.512 251.406 336.51C251.857 336.512 252.303 336.418 252.715 336.234C253.126 336.05 253.492 335.782 253.791 335.446C273.518 314.202 287.997 286.934 296.169 256.741L296.34 256.11H295.687H207.125ZM202.526 238.375L202.599 238.787H203.018H299.794H300.212L300.286 238.375C304.999 212.059 304.999 185.115 300.286 158.799L300.212 158.387H299.794H203.018H202.599L202.526 158.799C197.812 185.115 197.812 212.059 202.526 238.375ZM119.831 158.387H119.46L119.352 158.743C115.45 171.664 113.473 185.09 113.483 198.587C113.473 212.085 115.45 225.51 119.352 238.432L119.46 238.787H119.831H184.435H185.025L184.928 238.205C180.58 211.972 180.58 185.202 184.928 158.969L185.025 158.387H184.435H119.831ZM252.715 60.9403L252.511 61.3968L252.715 60.9403C252.303 60.7563 251.857 60.6621 251.406 60.6642C250.955 60.6621 250.509 60.7563 250.097 60.9403C249.686 61.1239 249.319 61.3926 249.02 61.7288C229.294 82.9728 214.814 110.24 206.643 140.434L206.472 141.064H207.125H295.687H296.34L296.169 140.434C287.997 110.24 273.518 82.9728 253.791 61.7288C253.493 61.3926 253.126 61.1239 252.715 60.9403ZM224.415 64.2103L225.193 63.1598L223.912 63.4229C202.79 67.7636 182.973 76.9796 166.044 90.3361C149.114 103.692 135.539 120.82 126.402 140.352L126.069 141.064H126.855H188.207H188.6L188.693 140.681C195.353 113.054 207.502 87.0483 224.415 64.2103ZM126.855 256.11H126.069L126.402 256.822C135.539 276.354 149.114 293.482 166.044 306.838C182.973 320.195 202.79 329.411 223.912 333.751L225.193 334.014L224.415 332.964C207.502 310.126 195.353 284.12 188.693 256.493L188.6 256.11H188.207H126.855ZM278.397 332.964L277.619 334.014L278.9 333.751C300.022 329.411 319.838 320.195 336.768 306.838C353.698 293.482 367.272 276.354 376.41 256.822L376.743 256.11H375.957H314.605H314.211L314.119 256.493C307.458 284.12 295.31 310.126 278.397 332.964ZM165.156 69.5048C190.686 52.4462 220.701 43.3412 251.406 43.3412C292.565 43.3896 332.024 59.7614 361.128 88.8652C390.232 117.969 406.604 157.429 406.652 198.588C406.652 229.292 397.547 259.307 380.488 284.837C363.43 310.367 339.183 330.265 310.816 342.016C282.449 353.766 251.234 356.84 221.119 350.85C191.004 344.86 163.342 330.074 141.63 308.363C119.919 286.651 105.133 258.989 99.143 228.874C93.1528 198.759 96.2272 167.545 107.977 139.177C119.728 110.81 139.626 86.5635 165.156 69.5048Z" stroke="#9F56D6"/>
<path d="M469.973 145.261C469.973 145.261 469.972 145.263 469.97 145.266C469.972 145.263 469.973 145.261 469.973 145.261ZM469.859 145.291C469.872 145.311 469.883 145.328 469.892 145.344C469.878 145.356 469.862 145.369 469.843 145.383C469.645 145.535 469.28 145.731 468.677 145.933C467.475 146.336 465.649 146.658 463.197 146.869C458.318 147.289 451.301 147.242 442.624 146.738C425.291 145.733 401.546 142.924 375.505 138.545C349.464 134.166 326.106 129.053 309.398 124.333C301.034 121.971 294.387 119.72 289.914 117.728C287.666 116.726 286.047 115.824 285.042 115.05C284.538 114.662 284.257 114.357 284.12 114.149C284.107 114.129 284.096 114.112 284.087 114.096C284.101 114.084 284.117 114.071 284.135 114.057C284.333 113.905 284.698 113.709 285.301 113.507C286.504 113.104 288.329 112.781 290.781 112.57C295.66 112.15 302.678 112.198 311.354 112.701C328.687 113.707 352.433 116.515 378.473 120.895C404.514 125.274 427.872 130.387 444.581 135.107C452.944 137.469 459.591 139.719 464.065 141.712C466.313 142.714 467.932 143.616 468.937 144.39C469.441 144.778 469.721 145.083 469.859 145.291ZM284.037 113.991C284.037 113.991 284.038 113.993 284.038 113.997C284.037 113.993 284.037 113.991 284.037 113.991ZM284.005 114.179C284.005 114.179 284.006 114.177 284.009 114.174C284.007 114.177 284.006 114.179 284.005 114.179ZM469.94 145.442C469.941 145.447 469.942 145.449 469.942 145.449C469.941 145.449 469.941 145.446 469.94 145.442Z" stroke="#8961CB" stroke-width="3"/>
<g clip-path="url(#clip1_118_835)">
<path d="M437.007 140.783L371.916 134.972L348.616 73.9174L306.825 129.162L395.217 196.027L437.007 140.783ZM445.365 129.734L356.974 62.8685L380.316 123.868L445.365 129.734Z" fill="url(#paint3_linear_118_835)"/>
<g filter="url(#filter1_i_118_835)">
<path d="M298.467 140.211L386.858 207.077C392.935 211.674 401.668 210.463 406.265 204.386L456.414 138.093C461.011 132.016 459.8 123.283 453.724 118.686L365.332 51.8203C359.255 47.2233 350.522 48.4342 345.925 54.5111L295.776 120.804C291.179 126.881 292.39 135.615 298.467 140.211ZM445.365 129.734L380.316 123.869L356.974 62.8692L445.365 129.734ZM348.616 73.9181L371.916 134.973L437.007 140.783L395.216 196.028L306.825 129.163L348.616 73.9181Z" fill="url(#paint4_linear_118_835)"/>
</g>
</g>
<g clip-path="url(#clip2_118_835)">
<path d="M437.007 140.783L371.916 134.972L348.616 73.9174L306.825 129.162L395.217 196.027L437.007 140.783ZM445.365 129.734L356.974 62.8685L380.316 123.868L445.365 129.734Z" fill="url(#paint5_linear_118_835)"/>
<g filter="url(#filter2_i_118_835)">
<path d="M298.467 140.211L386.858 207.077C392.935 211.674 401.668 210.463 406.265 204.386L456.414 138.093C461.011 132.016 459.8 123.283 453.724 118.686L365.332 51.8203C359.255 47.2233 350.522 48.4342 345.925 54.5111L295.776 120.804C291.179 126.881 292.39 135.615 298.467 140.211ZM445.365 129.734L380.316 123.869L356.974 62.8692L445.365 129.734ZM348.616 73.9181L371.916 134.973L437.007 140.783L395.216 196.028L306.825 129.163L348.616 73.9181Z" fill="url(#paint6_linear_118_835)"/>
</g>
</g>
<path d="M477.516 126.927C473.537 131.257 472.756 131.383 467.617 128.524C467.627 128.533 467.635 128.541 467.643 128.549L467.645 128.55C471.946 132.507 472.066 133.296 469.214 138.423C473.193 134.093 473.976 133.968 479.113 136.826C474.785 132.848 474.657 132.066 477.516 126.927Z" fill="#8961CB"/>
<path d="M343.71 23.8252C339.442 31.8614 338.322 32.3552 329.511 30.0805C329.529 30.0902 329.545 30.099 329.56 30.1078L329.563 30.1087C337.548 34.3542 338.036 35.4892 335.766 44.2798C340.034 36.2436 341.158 35.7507 349.966 38.0245C341.932 33.7573 341.436 32.6356 343.71 23.8252Z" fill="#8961CB"/>
<path d="M480.683 28.6412C482.63 33.6505 482.418 34.3423 478.001 37.4042C478.013 37.3999 478.023 37.3963 478.033 37.3927L478.034 37.392C483.013 35.4595 483.709 35.6792 486.764 40.0859C484.818 35.0766 485.031 34.3842 489.446 31.3229C484.438 33.2689 483.745 33.0579 480.683 28.6412Z" fill="#8961CB"/>
<path d="M424.195 1.57963C422.498 4.77557 422.052 4.97194 418.548 4.06731C418.555 4.07117 418.561 4.07468 418.568 4.07818L418.569 4.07854C421.744 5.76693 421.938 6.21833 421.036 9.71425C422.733 6.51831 423.18 6.32231 426.683 7.22658C423.488 5.52956 423.29 5.08346 424.195 1.57963Z" fill="#8961CB"/>
<g clip-path="url(#clip3_118_835)" filter="url(#filter3_f_118_835)">
<path opacity="0.3" d="M404.926 38.5768L411.29 30.2448L421.568 32.3137L417.653 21.9127L401.012 28.1759L404.926 38.5768ZM405.709 40.657L422.35 34.3939L412.076 32.3354L405.709 40.657Z" fill="url(#paint7_linear_118_835)"/>
<path d="M416.87 19.8325L400.228 26.0956C399.084 26.5262 398.501 27.8146 398.931 28.9587L403.629 41.4399C404.059 42.584 405.347 43.1678 406.492 42.7372L423.133 36.4741C424.277 36.0435 424.861 34.7551 424.43 33.611L419.733 21.1298C419.303 19.9857 418.014 19.4019 416.87 19.8325ZM405.709 40.657L412.076 32.3353L422.35 34.3939L405.709 40.657ZM421.567 32.3137L411.289 30.2447L404.926 38.5768L401.011 28.1758L417.653 21.9127L421.567 32.3137Z" fill="url(#paint8_linear_118_835)"/>
</g>
<g filter="url(#filter4_i_118_835)">
<path d="M17.8145 299.274C17.8145 299.274 80.4574 358.623 96.4594 369.531C115.036 382.2 139.141 356.765 130.581 342.791C122.022 328.818 58.2299 284.772 58.2299 284.772L17.8145 299.274Z" fill="url(#paint9_linear_118_835)"/>
</g>
<g filter="url(#filter5_i_118_835)">
<path d="M45.37 255.62L187.921 113.551L263.721 275.074L70.8517 320.317L45.37 255.62Z" fill="url(#paint10_linear_118_835)"/>
<path d="M45.37 255.62L187.921 113.551L263.721 275.074L70.8517 320.317L45.37 255.62Z" fill="url(#paint11_linear_118_835)"/>
</g>
<path d="M266.98 276.823C276.271 272.336 265.95 231.735 243.927 186.138C221.903 140.542 196.518 107.217 187.227 111.705C177.935 116.192 188.257 156.794 210.28 202.39C232.303 247.986 257.689 281.311 266.98 276.823Z" fill="url(#paint12_linear_118_835)"/>
<path d="M265.528 270.562C263.261 269.749 257.061 265.369 246.782 251.332C236.834 237.75 226.008 219.133 216.251 198.932C206.493 178.73 198.673 158.684 194.187 142.441C189.559 125.652 190.004 118.08 190.778 115.803C193.048 116.61 199.25 120.994 209.529 135.031C219.477 148.613 230.303 167.23 240.06 187.432C249.817 207.633 257.637 227.679 262.123 243.922C266.735 260.713 266.305 268.278 265.528 270.562Z" fill="url(#paint13_linear_118_835)"/>
<g filter="url(#filter6_i_118_835)">
<path d="M16.084 265.501C23.6837 260.67 35.0741 254.762 48.9462 251.59C55.2096 275.068 66.6513 297.171 82.6169 318.069L47.3943 335.082C44.6762 336.4 41.5765 336.704 38.654 335.939C35.7314 335.175 33.1782 333.391 31.4544 330.91C24.3279 320.636 13.1571 302.986 8.19254 286.87C6.98151 282.935 7.09799 278.712 8.52405 274.851C9.9501 270.989 12.6066 267.704 16.084 265.501Z" fill="url(#paint14_linear_118_835)"/>
</g>
<mask id="mask0_118_835" style="mask-type:alpha" maskUnits="userSpaceOnUse" x="294" y="118" width="159" height="44">
<path d="M297.7 118.075L452.06 144.263L438.956 161.55L294.555 122.266L297.7 118.075Z" fill="#D9D9D9"/>
</mask>
<g mask="url(#mask0_118_835)">
<path d="M470.385 145.331C470.385 145.331 470.384 145.333 470.381 145.337C470.383 145.333 470.385 145.331 470.385 145.331ZM470.27 145.358C470.284 145.378 470.295 145.397 470.305 145.413C470.29 145.426 470.273 145.439 470.254 145.454C470.055 145.607 469.688 145.804 469.082 146.007C467.875 146.411 466.043 146.735 463.584 146.946C458.688 147.368 451.648 147.32 442.943 146.815C425.554 145.808 401.731 142.993 375.606 138.602C349.481 134.212 326.048 129.086 309.285 124.354C300.895 121.986 294.226 119.73 289.737 117.731C287.482 116.727 285.857 115.823 284.849 115.046C284.343 114.657 284.061 114.351 283.923 114.141C283.909 114.121 283.897 114.102 283.888 114.086C283.902 114.073 283.919 114.06 283.939 114.045C284.138 113.892 284.505 113.695 285.11 113.492C286.317 113.088 288.149 112.764 290.609 112.553C295.504 112.131 302.545 112.179 311.249 112.683C328.639 113.691 352.461 116.506 378.586 120.897C404.711 125.287 428.145 130.413 444.907 135.145C453.298 137.513 459.967 139.769 464.455 141.768C466.71 142.772 468.335 143.676 469.344 144.453C469.85 144.842 470.132 145.148 470.27 145.358ZM283.839 113.982C283.839 113.982 283.84 113.984 283.841 113.988C283.839 113.984 283.839 113.982 283.839 113.982ZM283.808 114.168C283.808 114.168 283.809 114.166 283.811 114.162C283.809 114.166 283.808 114.168 283.808 114.168ZM470.352 145.511C470.353 145.515 470.354 145.517 470.354 145.517C470.353 145.517 470.353 145.515 470.352 145.511Z" stroke="#8961CB" stroke-width="3"/>
</g>
<rect x="256.673" y="113.372" width="6.36" height="34.589" rx="3.18" transform="rotate(35.2255 256.673 113.372)" fill="#673F8C"/>
<rect x="303.401" y="203.757" width="6.36" height="34.589" rx="3.18" transform="rotate(82.4237 303.401 203.757)" fill="#673F8C"/>
<path d="M48.398 142.107C46.5376 157.83 45.0308 159.336 29.3084 161.197C29.3438 161.201 29.3747 161.206 29.4056 161.21H29.41C45.0352 163.066 46.5421 164.599 48.398 180.286C50.2583 164.564 51.7696 163.057 67.4876 161.197C51.7696 159.336 50.2583 157.83 48.398 142.107Z" fill="#8961CB"/>
<rect x="279.335" y="161.438" width="6.36" height="25.8525" rx="3.18" transform="rotate(64.2322 279.335 161.438)" fill="#673F8C"/>
<g filter="url(#filter7_di_118_835)">
<rect x="330.241" y="246.075" width="35.0362" height="125.911" rx="5" fill="url(#paint15_linear_118_835)"/>
<rect x="330.241" y="246.075" width="35.0362" height="125.911" rx="5" fill="url(#paint16_linear_118_835)"/>
</g>
<g filter="url(#filter8_di_118_835)">
<rect x="369.658" y="280.016" width="35.0362" height="91.9699" rx="5" fill="url(#paint17_linear_118_835)"/>
<rect x="369.658" y="280.016" width="35.0362" height="91.9699" rx="5" fill="url(#paint18_linear_118_835)"/>
</g>
<g filter="url(#filter9_di_118_835)">
<rect x="410.167" y="299.724" width="35.0362" height="72.2621" rx="5" fill="url(#paint19_linear_118_835)"/>
<rect x="410.167" y="299.724" width="35.0362" height="72.2621" rx="5" fill="url(#paint20_linear_118_835)"/>
</g>
<path opacity="0.8" d="M109.358 90.9068H91.3656V62.4094H76.8516L100.362 34.4819L123.872 62.4094H109.358V90.9068Z" fill="url(#paint21_linear_118_835)"/>
<defs>
<filter id="filter0_d_118_835" x="94.0457" y="42.738" width="320.492" height="313.492" filterUnits="userSpaceOnUse" color-interpolation-filters="sRGB">
<feFlood flood-opacity="0" result="BackgroundImageFix"/>
<feColorMatrix in="SourceAlpha" type="matrix" values="0 0 0 0 0 0 0 0 0 0 0 0 0 0 0 0 0 0 127 0" result="hardAlpha"/>
<feOffset dx="-9" dy="2"/>
<feComposite in2="hardAlpha" operator="out"/>
<feColorMatrix type="matrix" values="0 0 0 0 0.796078 0 0 0 0 0.556863 0 0 0 0 0.811765 0 0 0 1 0"/>
<feBlend mode="normal" in2="BackgroundImageFix" result="effect1_dropShadow_118_835"/>
<feBlend mode="normal" in="SourceGraphic" in2="effect1_dropShadow_118_835" result="shape"/>
</filter>
<filter id="filter1_i_118_835" x="292.986" y="34.03" width="166.219" height="175.837" filterUnits="userSpaceOnUse" color-interpolation-filters="sRGB">
<feFlood flood-opacity="0" result="BackgroundImageFix"/>
<feBlend mode="normal" in="SourceGraphic" in2="BackgroundImageFix" result="shape"/>
<feColorMatrix in="SourceAlpha" type="matrix" values="0 0 0 0 0 0 0 0 0 0 0 0 0 0 0 0 0 0 127 0" result="hardAlpha"/>
<feOffset dy="-15"/>
<feGaussianBlur stdDeviation="12.5"/>
<feComposite in2="hardAlpha" operator="arithmetic" k2="-1" k3="1"/>
<feColorMatrix type="matrix" values="0 0 0 0 0 0 0 0 0 0 0 0 0 0 0 0 0 0 0.25 0"/>
<feBlend mode="normal" in2="shape" result="effect1_innerShadow_118_835"/>
</filter>
<filter id="filter2_i_118_835" x="292.986" y="34.03" width="166.219" height="175.837" filterUnits="userSpaceOnUse" color-interpolation-filters="sRGB">
<feFlood flood-opacity="0" result="BackgroundImageFix"/>
<feBlend mode="normal" in="SourceGraphic" in2="BackgroundImageFix" result="shape"/>
<feColorMatrix in="SourceAlpha" type="matrix" values="0 0 0 0 0 0 0 0 0 0 0 0 0 0 0 0 0 0 127 0" result="hardAlpha"/>
<feOffset dy="-15"/>
<feGaussianBlur stdDeviation="12.5"/>
<feComposite in2="hardAlpha" operator="arithmetic" k2="-1" k3="1"/>
<feColorMatrix type="matrix" values="0 0 0 0 0 0 0 0 0 0 0 0 0 0 0 0 0 0 0.25 0"/>
<feBlend mode="normal" in2="shape" result="effect1_innerShadow_118_835"/>
</filter>
<filter id="filter3_f_118_835" x="390.503" y="10.1067" width="42.3566" height="42.3565" filterUnits="userSpaceOnUse" color-interpolation-filters="sRGB">
<feFlood flood-opacity="0" result="BackgroundImageFix"/>
<feBlend mode="normal" in="SourceGraphic" in2="BackgroundImageFix" result="shape"/>
<feGaussianBlur stdDeviation="2" result="effect1_foregroundBlur_118_835"/>
</filter>
<filter id="filter4_i_118_835" x="17.8145" y="284.772" width="124.547" height="92.1937" filterUnits="userSpaceOnUse" color-interpolation-filters="sRGB">
<feFlood flood-opacity="0" result="BackgroundImageFix"/>
<feBlend mode="normal" in="SourceGraphic" in2="BackgroundImageFix" result="shape"/>
<feColorMatrix in="SourceAlpha" type="matrix" values="0 0 0 0 0 0 0 0 0 0 0 0 0 0 0 0 0 0 127 0" result="hardAlpha"/>
<feOffset dx="27" dy="4"/>
<feGaussianBlur stdDeviation="5"/>
<feComposite in2="hardAlpha" operator="arithmetic" k2="-1" k3="1"/>
<feColorMatrix type="matrix" values="0 0 0 0 0 0 0 0 0 0 0 0 0 0 0 0 0 0 0.25 0"/>
<feBlend mode="normal" in2="shape" result="effect1_innerShadow_118_835"/>
</filter>
<filter id="filter5_i_118_835" x="45.37" y="100.551" width="218.351" height="219.766" filterUnits="userSpaceOnUse" color-interpolation-filters="sRGB">
<feFlood flood-opacity="0" result="BackgroundImageFix"/>
<feBlend mode="normal" in="SourceGraphic" in2="BackgroundImageFix" result="shape"/>
<feColorMatrix in="SourceAlpha" type="matrix" values="0 0 0 0 0 0 0 0 0 0 0 0 0 0 0 0 0 0 127 0" result="hardAlpha"/>
<feOffset dy="-23"/>
<feGaussianBlur stdDeviation="6.5"/>
<feComposite in2="hardAlpha" operator="arithmetic" k2="-1" k3="1"/>
<feColorMatrix type="matrix" values="0 0 0 0 0 0 0 0 0 0 0 0 0 0 0 0 0 0 0.25 0"/>
<feBlend mode="normal" in2="shape" result="effect1_innerShadow_118_835"/>
</filter>
<filter id="filter6_i_118_835" x="7.36224" y="240.59" width="75.2547" height="95.763" filterUnits="userSpaceOnUse" color-interpolation-filters="sRGB">
<feFlood flood-opacity="0" result="BackgroundImageFix"/>
<feBlend mode="normal" in="SourceGraphic" in2="BackgroundImageFix" result="shape"/>
<feColorMatrix in="SourceAlpha" type="matrix" values="0 0 0 0 0 0 0 0 0 0 0 0 0 0 0 0 0 0 127 0" result="hardAlpha"/>
<feOffset dy="-22"/>
<feGaussianBlur stdDeviation="5.5"/>
<feComposite in2="hardAlpha" operator="arithmetic" k2="-1" k3="1"/>
<feColorMatrix type="matrix" values="0 0 0 0 0 0 0 0 0 0 0 0 0 0 0 0 0 0 0.25 0"/>
<feBlend mode="normal" in2="shape" result="effect1_innerShadow_118_835"/>
</filter>
<filter id="filter7_di_118_835" x="326.241" y="246.075" width="43.0361" height="133.911" filterUnits="userSpaceOnUse" color-interpolation-filters="sRGB">
<feFlood flood-opacity="0" result="BackgroundImageFix"/>
<feColorMatrix in="SourceAlpha" type="matrix" values="0 0 0 0 0 0 0 0 0 0 0 0 0 0 0 0 0 0 127 0" result="hardAlpha"/>
<feOffset dy="4"/>
<feGaussianBlur stdDeviation="2"/>
<feComposite in2="hardAlpha" operator="out"/>
<feColorMatrix type="matrix" values="0 0 0 0 0 0 0 0 0 0 0 0 0 0 0 0 0 0 0.25 0"/>
<feBlend mode="normal" in2="BackgroundImageFix" result="effect1_dropShadow_118_835"/>
<feBlend mode="normal" in="SourceGraphic" in2="effect1_dropShadow_118_835" result="shape"/>
<feColorMatrix in="SourceAlpha" type="matrix" values="0 0 0 0 0 0 0 0 0 0 0 0 0 0 0 0 0 0 127 0" result="hardAlpha"/>
<feOffset dy="10"/>
<feComposite in2="hardAlpha" operator="arithmetic" k2="-1" k3="1"/>
<feColorMatrix type="matrix" values="0 0 0 0 0.554572 0 0 0 0 0.554572 0 0 0 0 0.554572 0 0 0 0.25 0"/>
<feBlend mode="normal" in2="shape" result="effect2_innerShadow_118_835"/>
</filter>
<filter id="filter8_di_118_835" x="365.658" y="280.016" width="43.0361" height="99.9698" filterUnits="userSpaceOnUse" color-interpolation-filters="sRGB">
<feFlood flood-opacity="0" result="BackgroundImageFix"/>
<feColorMatrix in="SourceAlpha" type="matrix" values="0 0 0 0 0 0 0 0 0 0 0 0 0 0 0 0 0 0 127 0" result="hardAlpha"/>
<feOffset dy="4"/>
<feGaussianBlur stdDeviation="2"/>
<feComposite in2="hardAlpha" operator="out"/>
<feColorMatrix type="matrix" values="0 0 0 0 0 0 0 0 0 0 0 0 0 0 0 0 0 0 0.25 0"/>
<feBlend mode="normal" in2="BackgroundImageFix" result="effect1_dropShadow_118_835"/>
<feBlend mode="normal" in="SourceGraphic" in2="effect1_dropShadow_118_835" result="shape"/>
<feColorMatrix in="SourceAlpha" type="matrix" values="0 0 0 0 0 0 0 0 0 0 0 0 0 0 0 0 0 0 127 0" result="hardAlpha"/>
<feOffset dy="10"/>
<feComposite in2="hardAlpha" operator="arithmetic" k2="-1" k3="1"/>
<feColorMatrix type="matrix" values="0 0 0 0 0.554572 0 0 0 0 0.554572 0 0 0 0 0.554572 0 0 0 0.25 0"/>
<feBlend mode="normal" in2="shape" result="effect2_innerShadow_118_835"/>
</filter>
<filter id="filter9_di_118_835" x="406.167" y="299.724" width="43.0361" height="80.2621" filterUnits="userSpaceOnUse" color-interpolation-filters="sRGB">
<feFlood flood-opacity="0" result="BackgroundImageFix"/>
<feColorMatrix in="SourceAlpha" type="matrix" values="0 0 0 0 0 0 0 0 0 0 0 0 0 0 0 0 0 0 127 0" result="hardAlpha"/>
<feOffset dy="4"/>
<feGaussianBlur stdDeviation="2"/>
<feComposite in2="hardAlpha" operator="out"/>
<feColorMatrix type="matrix" values="0 0 0 0 0 0 0 0 0 0 0 0 0 0 0 0 0 0 0.25 0"/>
<feBlend mode="normal" in2="BackgroundImageFix" result="effect1_dropShadow_118_835"/>
<feBlend mode="normal" in="SourceGraphic" in2="effect1_dropShadow_118_835" result="shape"/>
<feColorMatrix in="SourceAlpha" type="matrix" values="0 0 0 0 0 0 0 0 0 0 0 0 0 0 0 0 0 0 127 0" result="hardAlpha"/>
<feOffset dy="10"/>
<feComposite in2="hardAlpha" operator="arithmetic" k2="-1" k3="1"/>
<feColorMatrix type="matrix" values="0 0 0 0 0.554572 0 0 0 0 0.554572 0 0 0 0 0.554572 0 0 0 0.25 0"/>
<feBlend mode="normal" in2="shape" result="effect2_innerShadow_118_835"/>
</filter>
<linearGradient id="paint0_linear_118_835" x1="455.803" y1="46.1381" x2="466.529" y2="70.0263" gradientUnits="userSpaceOnUse">
<stop stop-color="#A8DEE6"/>
<stop offset="1" stop-color="#6485BC"/>
</linearGradient>
<linearGradient id="paint1_linear_118_835" x1="455.544" y1="45.0712" x2="468.098" y2="73.5915" gradientUnits="userSpaceOnUse">
<stop stop-color="#BBEDEE"/>
<stop offset="1" stop-color="#607FB9"/>
</linearGradient>
<linearGradient id="paint2_linear_118_835" x1="258.792" y1="42.738" x2="258.792" y2="354.23" gradientUnits="userSpaceOnUse">
<stop stop-color="#4259A7"/>
<stop offset="0.130208" stop-color="#94A6E4"/>
<stop offset="0.359375" stop-color="#BDC6ED"/>
<stop offset="0.53125" stop-color="#C6C6EC"/>
<stop offset="0.844124" stop-color="#A89EE1"/>
<stop offset="0.9999" stop-color="#CBE1F9"/>
<stop offset="1" stop-color="#D7D0FF"/>
</linearGradient>
<linearGradient id="paint3_linear_118_835" x1="401.17" y1="96.3011" x2="351.021" y2="162.594" gradientUnits="userSpaceOnUse">
<stop offset="0.384782" stop-color="white"/>
<stop offset="1" stop-color="#D6E2EE"/>
</linearGradient>
<linearGradient id="paint4_linear_118_835" x1="409.528" y1="85.2529" x2="342.663" y2="173.644" gradientUnits="userSpaceOnUse">
<stop stop-color="#BBEDEE"/>
<stop offset="0.25" stop-color="#C6F9FA"/>
<stop offset="0.626561" stop-color="#C6DAE8"/>
<stop offset="1" stop-color="#607FB9"/>
</linearGradient>
<linearGradient id="paint5_linear_118_835" x1="401.17" y1="96.3011" x2="351.021" y2="162.594" gradientUnits="userSpaceOnUse">
<stop offset="0.384782" stop-color="white"/>
<stop offset="1" stop-color="#D6E2EE"/>
</linearGradient>
<linearGradient id="paint6_linear_118_835" x1="409.528" y1="85.2529" x2="342.663" y2="173.644" gradientUnits="userSpaceOnUse">
<stop stop-color="#BBEDEE"/>
<stop offset="0.25" stop-color="#C6F9FA"/>
<stop offset="0.626561" stop-color="#C6DAE8"/>
<stop offset="1" stop-color="#607FB9"/>
</linearGradient>
<linearGradient id="paint7_linear_118_835" x1="414.698" y1="38.9896" x2="409.332" y2="25.0443" gradientUnits="userSpaceOnUse">
<stop stop-color="#A8DEE6"/>
<stop offset="1" stop-color="#6485BC"/>
</linearGradient>
<linearGradient id="paint8_linear_118_835" x1="414.812" y1="39.6056" x2="408.549" y2="22.964" gradientUnits="userSpaceOnUse">
<stop stop-color="#BBEDEE"/>
<stop offset="1" stop-color="#607FB9"/>
</linearGradient>
<linearGradient id="paint9_linear_118_835" x1="-199.956" y1="149.885" x2="157.832" y2="374.599" gradientUnits="userSpaceOnUse">
<stop offset="0.791667" stop-color="#623FB8"/>
<stop offset="1" stop-color="#AD51DD"/>
</linearGradient>
<linearGradient id="paint10_linear_118_835" x1="-40.1777" y1="213.16" x2="265.457" y2="220.214" gradientUnits="userSpaceOnUse">
<stop offset="0.258774" stop-color="#513DB0"/>
<stop offset="1" stop-color="#ED4FFC"/>
</linearGradient>
<linearGradient id="paint11_linear_118_835" x1="218.959" y1="276.9" x2="142.419" y2="210.026" gradientUnits="userSpaceOnUse">
<stop stop-color="#D0EEFB" stop-opacity="0.63"/>
<stop offset="1" stop-color="#C0B6EE" stop-opacity="0"/>
</linearGradient>
<linearGradient id="paint12_linear_118_835" x1="187.227" y1="111.705" x2="266.98" y2="276.823" gradientUnits="userSpaceOnUse">
<stop stop-color="#9264DB"/>
<stop offset="0.5" stop-color="#E5D5FF"/>
<stop offset="1" stop-color="#EAE0FB"/>
</linearGradient>
<linearGradient id="paint13_linear_118_835" x1="583.374" y1="408.963" x2="158.697" y2="112.475" gradientUnits="userSpaceOnUse">
<stop stop-color="#AF50DF"/>
<stop offset="1" stop-color="#5D3D81"/>
</linearGradient>
<linearGradient id="paint14_linear_118_835" x1="24.5597" y1="260.579" x2="58.0572" y2="329.932" gradientUnits="userSpaceOnUse">
<stop stop-color="#BB63E5"/>
<stop offset="1" stop-color="#A25CD9"/>
</linearGradient>
<linearGradient id="paint15_linear_118_835" x1="347.759" y1="246.075" x2="347.759" y2="371.986" gradientUnits="userSpaceOnUse">
<stop offset="0.079805" stop-color="#EE4DFC"/>
<stop offset="1" stop-color="#663FBA"/>
</linearGradient>
<linearGradient id="paint16_linear_118_835" x1="389.205" y1="359.011" x2="347.125" y2="369.424" gradientUnits="userSpaceOnUse">
<stop stop-color="#B9EAEB"/>
<stop offset="1" stop-color="#B9EAEB" stop-opacity="0"/>
</linearGradient>
<linearGradient id="paint17_linear_118_835" x1="387.176" y1="280.016" x2="387.176" y2="371.986" gradientUnits="userSpaceOnUse">
<stop offset="0.079805" stop-color="#EE4DFC"/>
<stop offset="1" stop-color="#663FBA"/>
</linearGradient>
<linearGradient id="paint18_linear_118_835" x1="428.621" y1="362.508" x2="388.563" y2="376.08" gradientUnits="userSpaceOnUse">
<stop stop-color="#B9EAEB"/>
<stop offset="1" stop-color="#B9EAEB" stop-opacity="0"/>
</linearGradient>
<linearGradient id="paint19_linear_118_835" x1="427.686" y1="299.724" x2="427.686" y2="371.986" gradientUnits="userSpaceOnUse">
<stop offset="0.079805" stop-color="#EE4DFC"/>
<stop offset="1" stop-color="#663FBA"/>
</linearGradient>
<linearGradient id="paint20_linear_118_835" x1="469.131" y1="364.539" x2="431.476" y2="380.776" gradientUnits="userSpaceOnUse">
<stop stop-color="#B9EAEB"/>
<stop offset="1" stop-color="#B9EAEB" stop-opacity="0"/>
</linearGradient>
<linearGradient id="paint21_linear_118_835" x1="100.362" y1="34.4819" x2="90.1184" y2="90.1271" gradientUnits="userSpaceOnUse">
<stop stop-color="#415CA9"/>
<stop offset="0.411458" stop-color="#8F69CE"/>
<stop offset="0.9999" stop-color="#A49CD7"/>
<stop offset="1" stop-color="#A49CD7"/>
</linearGradient>
<clipPath id="clip0_118_835">
<rect width="46.7408" height="46.7408" fill="white" transform="translate(431.016 47.3565) rotate(-23.7578)"/>
</clipPath>
<clipPath id="clip1_118_835">
<rect width="166.247" height="166.247" fill="white" transform="translate(359.951 13.0062) rotate(37.1064)"/>
</clipPath>
<clipPath id="clip2_118_835">
<rect width="166.247" height="166.247" fill="white" transform="translate(359.951 13.0062) rotate(37.1064)"/>
</clipPath>
<clipPath id="clip3_118_835">
<rect width="26.6713" height="26.6713" fill="white" transform="translate(428.859 39.0687) rotate(159.376)"/>
</clipPath>
</defs>
</svg>
