<svg width="693" height="415" viewBox="0 0 693 415" fill="none" xmlns="http://www.w3.org/2000/svg">
<path d="M663.728 152.948C660.876 174.425 658.565 176.484 634.457 179.025C634.511 179.031 634.558 179.037 634.606 179.043H634.612C658.572 181.578 660.882 183.673 663.728 205.102C666.581 183.631 668.898 181.566 693 179.025C668.898 176.484 666.581 174.425 663.728 152.948Z" fill="#8961CB"/>
<path d="M73.2415 116.067C70.3888 137.544 68.0783 139.602 43.9697 142.144C44.0239 142.15 44.0714 142.156 44.1188 142.162H44.1256C68.085 144.697 70.3956 146.792 73.2415 168.22C76.0941 146.749 78.4115 144.685 102.513 142.144C78.4115 139.602 76.0941 137.544 73.2415 116.067Z" fill="#8961CB"/>
<path d="M161.014 22.2605C160.028 29.5242 159.228 30.2204 150.889 31.0799C150.908 31.0819 150.925 31.084 150.941 31.086H150.943C159.231 31.9435 160.03 32.6519 161.014 39.8993C162.001 32.6376 162.803 31.9394 171.139 31.0799C162.803 30.2204 162.001 29.5242 161.014 22.2605Z" fill="#8961CB"/>
<path d="M615.422 135.309C614.435 142.573 613.636 143.269 605.297 144.129C605.316 144.131 605.332 144.133 605.348 144.135H605.351C613.638 144.992 614.437 145.701 615.422 152.948C616.409 145.686 617.21 144.988 625.547 144.129C617.21 143.269 616.409 142.573 615.422 135.309Z" fill="#8961CB"/>
<path d="M650.717 75.0073C653.306 84.6907 647.556 96.3916 634.125 109.403C620.762 122.349 600.079 136.308 573.596 150.431C520.644 178.669 444.707 207.459 358.338 230.087C271.97 252.714 191.587 264.878 131.455 266.267C101.381 266.961 76.4306 264.958 58.3465 260.25C40.1712 255.519 29.3264 248.166 26.7371 238.483C24.1478 228.799 29.8976 217.098 43.3286 204.087C56.6921 191.14 77.375 177.182 103.858 163.059C156.81 134.821 232.747 106.031 319.116 83.403C405.484 60.7756 485.867 48.6114 545.999 47.2233C576.073 46.5291 601.023 48.5321 619.107 53.2395C637.283 57.9706 648.128 65.3239 650.717 75.0073Z" stroke="#8961CB" stroke-width="2"/>
<g filter="url(#filter0_d_159_1517)">
<g filter="url(#filter1_ii_159_1517)">
<rect x="128.209" y="69.5645" width="429.648" height="262.978" rx="14" fill="url(#paint0_linear_159_1517)"/>
</g>
<rect x="126.209" y="67.5645" width="433.648" height="266.978" rx="16" stroke="#8961CB" stroke-opacity="0.7" stroke-width="4"/>
<g opacity="0.7" filter="url(#filter2_ii_159_1517)">
<rect x="139.616" y="80.8557" width="406.835" height="240.397" rx="8" fill="#CBE1F9"/>
</g>
<rect x="154.35" y="280.774" width="377.368" height="7.05666" rx="3.52833" fill="#A89EE1"/>
<rect x="154.35" y="280.774" width="149.712" height="7.05666" rx="3.52833" fill="url(#paint1_linear_159_1517)"/>
<ellipse cx="302.16" cy="284.067" rx="7.12912" ry="7.05666" fill="#415CA9"/>
<path d="M156.553 114.005V97.8267H161.596V99.8593H159.186V111.966H161.596V114.005H156.553ZM163.151 112.458V99.3672H165.919V104.768H171.537V99.3672H174.299V112.458H171.537V107.05H165.919V112.458H163.151ZM179.348 99.3672V112.458H176.581V99.3672H179.348ZM181.626 99.3672H185.039L188.644 108.163H188.797L192.403 99.3672H195.816V112.458H193.131V103.937H193.023L189.635 112.394H187.807L184.419 103.906H184.31V112.458H181.626V99.3672ZM197.598 101.649V99.3672H208.349V101.649H204.341V112.458H201.606V101.649H197.598ZM212.887 99.3672V112.458H210.12V99.3672H212.887ZM219.331 112.458V99.3672H224.495C225.484 99.3672 226.328 99.544 227.027 99.8977C227.73 100.247 228.265 100.744 228.631 101.387C229.002 102.026 229.187 102.778 229.187 103.643C229.187 104.513 229 105.261 228.625 105.887C228.25 106.509 227.706 106.986 226.995 107.319C226.287 107.651 225.431 107.817 224.425 107.817H220.967V105.593H223.978C224.506 105.593 224.945 105.521 225.294 105.376C225.644 105.231 225.904 105.013 226.074 104.724C226.249 104.434 226.336 104.074 226.336 103.643C226.336 103.209 226.249 102.842 226.074 102.544C225.904 102.246 225.642 102.02 225.288 101.866C224.939 101.709 224.498 101.63 223.965 101.63H222.098V112.458H219.331ZM226.4 106.501L229.654 112.458H226.598L223.415 106.501H226.4ZM231.143 112.458V99.3672H239.964V101.649H233.911V104.768H239.51V107.05H233.911V110.176H239.99V112.458H231.143ZM249.266 103.132C249.215 102.616 248.996 102.216 248.608 101.93C248.22 101.645 247.694 101.502 247.029 101.502C246.577 101.502 246.196 101.566 245.885 101.694C245.574 101.817 245.335 101.99 245.169 102.212C245.007 102.433 244.926 102.685 244.926 102.966C244.917 103.2 244.966 103.405 245.073 103.58C245.184 103.754 245.335 103.906 245.527 104.033C245.719 104.157 245.94 104.266 246.192 104.359C246.443 104.449 246.712 104.526 246.997 104.589L248.173 104.871C248.744 104.999 249.268 105.169 249.746 105.382C250.223 105.595 250.636 105.857 250.986 106.168C251.335 106.479 251.606 106.846 251.797 107.268C251.993 107.69 252.094 108.173 252.098 108.719C252.094 109.52 251.889 110.214 251.484 110.803C251.084 111.386 250.504 111.84 249.746 112.164C248.991 112.484 248.082 112.643 247.016 112.643C245.959 112.643 245.039 112.482 244.255 112.158C243.475 111.834 242.866 111.354 242.427 110.719C241.992 110.08 241.764 109.29 241.743 108.348H244.421C244.451 108.787 244.577 109.153 244.798 109.447C245.024 109.737 245.324 109.957 245.699 110.106C246.079 110.251 246.507 110.323 246.984 110.323C247.453 110.323 247.86 110.255 248.205 110.119C248.555 109.982 248.825 109.793 249.017 109.55C249.209 109.307 249.305 109.028 249.305 108.712C249.305 108.418 249.217 108.171 249.042 107.971C248.872 107.771 248.621 107.6 248.288 107.459C247.96 107.319 247.557 107.191 247.08 107.076L245.655 106.718C244.551 106.45 243.68 106.03 243.04 105.459C242.401 104.888 242.084 104.119 242.088 103.151C242.084 102.359 242.295 101.666 242.721 101.074C243.151 100.482 243.741 100.019 244.491 99.6868C245.241 99.3544 246.094 99.1882 247.048 99.1882C248.02 99.1882 248.868 99.3544 249.592 99.6868C250.321 100.019 250.888 100.482 251.292 101.074C251.697 101.666 251.906 102.352 251.919 103.132H249.266ZM253.96 112.458V99.3672H259.124C260.117 99.3672 260.963 99.5568 261.662 99.9361C262.361 100.311 262.894 100.833 263.26 101.502C263.631 102.167 263.816 102.934 263.816 103.803C263.816 104.673 263.629 105.44 263.254 106.104C262.879 106.769 262.335 107.287 261.624 107.658C260.916 108.028 260.06 108.214 259.054 108.214H255.762V105.996H258.607C259.139 105.996 259.578 105.904 259.923 105.721C260.273 105.533 260.533 105.276 260.703 104.947C260.878 104.615 260.965 104.234 260.965 103.803C260.965 103.369 260.878 102.989 260.703 102.665C260.533 102.337 260.273 102.084 259.923 101.905C259.574 101.722 259.131 101.63 258.594 101.63H256.727V112.458H253.96ZM277.644 105.913C277.644 107.34 277.373 108.555 276.832 109.556C276.295 110.558 275.562 111.322 274.633 111.851C273.708 112.375 272.669 112.637 271.514 112.637C270.35 112.637 269.306 112.373 268.382 111.844C267.457 111.316 266.726 110.551 266.189 109.55C265.652 108.548 265.384 107.336 265.384 105.913C265.384 104.485 265.652 103.271 266.189 102.269C266.726 101.268 267.457 100.505 268.382 99.9808C269.306 99.4524 270.35 99.1882 271.514 99.1882C272.669 99.1882 273.708 99.4524 274.633 99.9808C275.562 100.505 276.295 101.268 276.832 102.269C277.373 103.271 277.644 104.485 277.644 105.913ZM274.838 105.913C274.838 104.988 274.699 104.208 274.422 103.573C274.149 102.938 273.764 102.457 273.265 102.129C272.767 101.8 272.183 101.636 271.514 101.636C270.845 101.636 270.261 101.8 269.762 102.129C269.264 102.457 268.876 102.938 268.599 103.573C268.326 104.208 268.19 104.988 268.19 105.913C268.19 106.837 268.326 107.617 268.599 108.252C268.876 108.887 269.264 109.369 269.762 109.697C270.261 110.025 270.845 110.189 271.514 110.189C272.183 110.189 272.767 110.025 273.265 109.697C273.764 109.369 274.149 108.887 274.422 108.252C274.699 107.617 274.838 106.837 274.838 105.913ZM290.644 99.3672V112.458H288.253L282.558 104.219H282.462V112.458H279.694V99.3672H282.123L287.773 107.6H287.889V99.3672H290.644ZM300.032 103.132C299.981 102.616 299.761 102.216 299.373 101.93C298.986 101.645 298.459 101.502 297.795 101.502C297.343 101.502 296.962 101.566 296.65 101.694C296.339 101.817 296.101 101.99 295.935 102.212C295.773 102.433 295.692 102.685 295.692 102.966C295.683 103.2 295.732 103.405 295.839 103.58C295.949 103.754 296.101 103.906 296.292 104.033C296.484 104.157 296.706 104.266 296.957 104.359C297.209 104.449 297.477 104.526 297.763 104.589L298.939 104.871C299.51 104.999 300.034 105.169 300.511 105.382C300.989 105.595 301.402 105.857 301.751 106.168C302.101 106.479 302.371 106.846 302.563 107.268C302.759 107.69 302.859 108.173 302.864 108.719C302.859 109.52 302.655 110.214 302.25 110.803C301.849 111.386 301.27 111.84 300.511 112.164C299.757 112.484 298.847 112.643 297.782 112.643C296.725 112.643 295.805 112.482 295.02 112.158C294.241 111.834 293.631 111.354 293.192 110.719C292.758 110.08 292.53 109.29 292.508 108.348H295.187C295.216 108.787 295.342 109.153 295.564 109.447C295.79 109.737 296.09 109.957 296.465 110.106C296.844 110.251 297.273 110.323 297.75 110.323C298.219 110.323 298.626 110.255 298.971 110.119C299.32 109.982 299.591 109.793 299.783 109.55C299.974 109.307 300.07 109.028 300.07 108.712C300.07 108.418 299.983 108.171 299.808 107.971C299.638 107.771 299.386 107.6 299.054 107.459C298.726 107.319 298.323 107.191 297.846 107.076L296.42 106.718C295.317 106.45 294.445 106.03 293.806 105.459C293.167 104.888 292.849 104.119 292.854 103.151C292.849 102.359 293.06 101.666 293.486 101.074C293.917 100.482 294.507 100.019 295.257 99.6868C296.007 99.3544 296.859 99.1882 297.814 99.1882C298.785 99.1882 299.633 99.3544 300.358 99.6868C301.087 100.019 301.653 100.482 302.058 101.074C302.463 101.666 302.672 102.352 302.685 103.132H300.032ZM307.493 99.3672V112.458H304.725V99.3672H307.493ZM314.091 97.8267V114.005H309.048V111.966H311.458V99.8593H309.048V97.8267H314.091ZM321.301 112.458V99.3672H326.466C327.455 99.3672 328.299 99.544 328.997 99.8977C329.701 100.247 330.235 100.744 330.602 101.387C330.973 102.026 331.158 102.778 331.158 103.643C331.158 104.513 330.97 105.261 330.595 105.887C330.22 106.509 329.677 106.986 328.965 107.319C328.258 107.651 327.402 107.817 326.396 107.817H322.938V105.593H325.948C326.477 105.593 326.916 105.521 327.265 105.376C327.615 105.231 327.875 105.013 328.045 104.724C328.22 104.434 328.307 104.074 328.307 103.643C328.307 103.209 328.22 102.842 328.045 102.544C327.875 102.246 327.612 102.02 327.259 101.866C326.909 101.709 326.468 101.63 325.936 101.63H324.069V112.458H321.301ZM328.371 106.501L331.625 112.458H328.569L325.386 106.501H328.371ZM337.379 112.65C336.369 112.65 335.5 112.445 334.771 112.036C334.047 111.623 333.488 111.039 333.096 110.285C332.704 109.526 332.508 108.629 332.508 107.594C332.508 106.584 332.704 105.697 333.096 104.935C333.488 104.172 334.04 103.577 334.752 103.151C335.468 102.725 336.307 102.512 337.27 102.512C337.918 102.512 338.521 102.616 339.079 102.825C339.642 103.03 340.132 103.339 340.549 103.752C340.971 104.165 341.299 104.685 341.534 105.312C341.768 105.934 341.885 106.663 341.885 107.498V108.246H333.595V106.558H339.322C339.322 106.166 339.237 105.819 339.066 105.516C338.896 105.214 338.659 104.977 338.357 104.807C338.059 104.632 337.711 104.545 337.315 104.545C336.902 104.545 336.535 104.641 336.216 104.832C335.9 105.02 335.653 105.273 335.474 105.593C335.295 105.908 335.204 106.26 335.199 106.648V108.252C335.199 108.738 335.289 109.158 335.468 109.511C335.651 109.865 335.909 110.138 336.241 110.33C336.574 110.521 336.968 110.617 337.424 110.617C337.726 110.617 338.003 110.575 338.255 110.489C338.506 110.404 338.721 110.276 338.9 110.106C339.079 109.935 339.216 109.727 339.309 109.479L341.828 109.646C341.7 110.251 341.438 110.779 341.042 111.231C340.65 111.678 340.142 112.028 339.52 112.279C338.902 112.526 338.189 112.65 337.379 112.65ZM351.831 105.44L349.338 105.593C349.296 105.38 349.204 105.188 349.064 105.018C348.923 104.843 348.738 104.705 348.508 104.602C348.282 104.496 348.011 104.442 347.696 104.442C347.274 104.442 346.918 104.532 346.628 104.711C346.338 104.886 346.194 105.12 346.194 105.414C346.194 105.648 346.287 105.847 346.475 106.008C346.662 106.17 346.984 106.3 347.44 106.398L349.217 106.756C350.172 106.952 350.883 107.268 351.352 107.702C351.821 108.137 352.055 108.708 352.055 109.415C352.055 110.059 351.865 110.624 351.486 111.109C351.111 111.595 350.596 111.974 349.939 112.247C349.287 112.516 348.535 112.65 347.683 112.65C346.383 112.65 345.348 112.379 344.576 111.838C343.809 111.293 343.36 110.551 343.228 109.614L345.906 109.473C345.987 109.869 346.183 110.172 346.494 110.381C346.805 110.585 347.204 110.687 347.689 110.687C348.167 110.687 348.55 110.596 348.84 110.413C349.134 110.225 349.283 109.984 349.287 109.69C349.283 109.443 349.179 109.241 348.974 109.083C348.77 108.921 348.454 108.798 348.028 108.712L346.328 108.374C345.369 108.182 344.655 107.849 344.186 107.376C343.722 106.903 343.49 106.3 343.49 105.567C343.49 104.937 343.66 104.393 344.001 103.937C344.346 103.482 344.83 103.13 345.452 102.883C346.079 102.636 346.811 102.512 347.651 102.512C348.891 102.512 349.867 102.774 350.579 103.298C351.294 103.822 351.712 104.536 351.831 105.44ZM353.77 116.14V102.64H356.454V104.289H356.576C356.695 104.025 356.868 103.756 357.094 103.484C357.324 103.207 357.622 102.977 357.989 102.793C358.359 102.606 358.819 102.512 359.369 102.512C360.085 102.512 360.746 102.7 361.351 103.075C361.956 103.445 362.439 104.006 362.802 104.756C363.164 105.501 363.345 106.437 363.345 107.562C363.345 108.657 363.168 109.582 362.814 110.336C362.465 111.086 361.988 111.655 361.383 112.043C360.782 112.426 360.109 112.618 359.363 112.618C358.834 112.618 358.385 112.531 358.014 112.356C357.648 112.181 357.347 111.962 357.113 111.697C356.878 111.429 356.699 111.158 356.576 110.886H356.493V116.14H353.77ZM356.435 107.549C356.435 108.133 356.516 108.642 356.678 109.077C356.84 109.511 357.074 109.85 357.381 110.093C357.688 110.332 358.061 110.451 358.5 110.451C358.943 110.451 359.318 110.33 359.625 110.087C359.932 109.839 360.164 109.499 360.322 109.064C360.484 108.625 360.564 108.12 360.564 107.549C360.564 106.982 360.486 106.484 360.328 106.053C360.17 105.623 359.938 105.286 359.631 105.043C359.324 104.8 358.947 104.679 358.5 104.679C358.057 104.679 357.682 104.796 357.375 105.031C357.072 105.265 356.84 105.597 356.678 106.028C356.516 106.458 356.435 106.965 356.435 107.549ZM369.596 112.65C368.604 112.65 367.745 112.439 367.02 112.017C366.3 111.591 365.744 110.999 365.352 110.24C364.96 109.477 364.764 108.593 364.764 107.587C364.764 106.573 364.96 105.687 365.352 104.928C365.744 104.165 366.3 103.573 367.02 103.151C367.745 102.725 368.604 102.512 369.596 102.512C370.589 102.512 371.446 102.725 372.166 103.151C372.89 103.573 373.449 104.165 373.841 104.928C374.233 105.687 374.429 106.573 374.429 107.587C374.429 108.593 374.233 109.477 373.841 110.24C373.449 110.999 372.89 111.591 372.166 112.017C371.446 112.439 370.589 112.65 369.596 112.65ZM369.609 110.54C370.061 110.54 370.438 110.413 370.741 110.157C371.043 109.897 371.271 109.543 371.425 109.096C371.582 108.648 371.661 108.139 371.661 107.568C371.661 106.997 371.582 106.488 371.425 106.04C371.271 105.593 371.043 105.239 370.741 104.979C370.438 104.719 370.061 104.589 369.609 104.589C369.153 104.589 368.77 104.719 368.459 104.979C368.152 105.239 367.92 105.593 367.762 106.04C367.609 106.488 367.532 106.997 367.532 107.568C367.532 108.139 367.609 108.648 367.762 109.096C367.92 109.543 368.152 109.897 368.459 110.157C368.77 110.413 369.153 110.54 369.609 110.54ZM378.922 106.782V112.458H376.199V102.64H378.795V104.372H378.91C379.127 103.801 379.491 103.349 380.003 103.017C380.514 102.68 381.134 102.512 381.863 102.512C382.545 102.512 383.139 102.661 383.646 102.959C384.153 103.258 384.547 103.684 384.829 104.238C385.11 104.788 385.251 105.444 385.251 106.207V112.458H382.528V106.692C382.532 106.092 382.378 105.623 382.067 105.286C381.756 104.945 381.328 104.775 380.783 104.775C380.416 104.775 380.092 104.854 379.811 105.011C379.534 105.169 379.317 105.399 379.159 105.702C379.006 106 378.927 106.36 378.922 106.782ZM395.566 105.44L393.073 105.593C393.03 105.38 392.939 105.188 392.798 105.018C392.657 104.843 392.472 104.705 392.242 104.602C392.016 104.496 391.745 104.442 391.43 104.442C391.008 104.442 390.652 104.532 390.363 104.711C390.073 104.886 389.928 105.12 389.928 105.414C389.928 105.648 390.022 105.847 390.209 106.008C390.397 106.17 390.718 106.3 391.174 106.398L392.951 106.756C393.906 106.952 394.618 107.268 395.086 107.702C395.555 108.137 395.789 108.708 395.789 109.415C395.789 110.059 395.6 110.624 395.221 111.109C394.846 111.595 394.33 111.974 393.674 112.247C393.022 112.516 392.27 112.65 391.417 112.65C390.118 112.65 389.082 112.379 388.311 111.838C387.544 111.293 387.094 110.551 386.962 109.614L389.64 109.473C389.721 109.869 389.917 110.172 390.228 110.381C390.539 110.585 390.938 110.687 391.424 110.687C391.901 110.687 392.284 110.596 392.574 110.413C392.868 110.225 393.017 109.984 393.022 109.69C393.017 109.443 392.913 109.241 392.708 109.083C392.504 108.921 392.189 108.798 391.762 108.712L390.062 108.374C389.103 108.182 388.39 107.849 387.921 107.376C387.456 106.903 387.224 106.3 387.224 105.567C387.224 104.937 387.395 104.393 387.735 103.937C388.081 103.482 388.564 103.13 389.186 102.883C389.813 102.636 390.546 102.512 391.385 102.512C392.625 102.512 393.601 102.774 394.313 103.298C395.029 103.822 395.446 104.536 395.566 105.44ZM397.504 112.458V102.64H400.227V112.458H397.504ZM398.872 101.374C398.467 101.374 398.12 101.24 397.83 100.972C397.545 100.699 397.402 100.373 397.402 99.9936C397.402 99.6186 397.545 99.2968 397.83 99.0284C398.12 98.7557 398.467 98.6193 398.872 98.6193C399.277 98.6193 399.622 98.7557 399.908 99.0284C400.197 99.2968 400.342 99.6186 400.342 99.9936C400.342 100.373 400.197 100.699 399.908 100.972C399.622 101.24 399.277 101.374 398.872 101.374ZM413.727 103.132C413.676 102.616 413.457 102.216 413.069 101.93C412.681 101.645 412.155 101.502 411.49 101.502C411.038 101.502 410.657 101.566 410.346 101.694C410.035 101.817 409.796 101.99 409.63 102.212C409.468 102.433 409.387 102.685 409.387 102.966C409.378 103.2 409.427 103.405 409.534 103.58C409.645 103.754 409.796 103.906 409.988 104.033C410.18 104.157 410.401 104.266 410.653 104.359C410.904 104.449 411.172 104.526 411.458 104.589L412.634 104.871C413.205 104.999 413.729 105.169 414.207 105.382C414.684 105.595 415.097 105.857 415.447 106.168C415.796 106.479 416.067 106.846 416.258 107.268C416.454 107.69 416.555 108.173 416.559 108.719C416.555 109.52 416.35 110.214 415.945 110.803C415.545 111.386 414.965 111.84 414.207 112.164C413.452 112.484 412.542 112.643 411.477 112.643C410.42 112.643 409.5 112.482 408.716 112.158C407.936 111.834 407.327 111.354 406.888 110.719C406.453 110.08 406.225 109.29 406.204 108.348H408.882C408.912 108.787 409.038 109.153 409.259 109.447C409.485 109.737 409.785 109.957 410.16 110.106C410.54 110.251 410.968 110.323 411.445 110.323C411.914 110.323 412.321 110.255 412.666 110.119C413.015 109.982 413.286 109.793 413.478 109.55C413.67 109.307 413.765 109.028 413.765 108.712C413.765 108.418 413.678 108.171 413.503 107.971C413.333 107.771 413.082 107.6 412.749 107.459C412.421 107.319 412.018 107.191 411.541 107.076L410.116 106.718C409.012 106.45 408.14 106.03 407.501 105.459C406.862 104.888 406.545 104.119 406.549 103.151C406.545 102.359 406.756 101.666 407.182 101.074C407.612 100.482 408.202 100.019 408.952 99.6868C409.702 99.3544 410.555 99.1882 411.509 99.1882C412.481 99.1882 413.329 99.3544 414.053 99.6868C414.782 100.019 415.349 100.482 415.753 101.074C416.158 101.666 416.367 102.352 416.38 103.132H413.727ZM430.45 105.913C430.45 107.34 430.18 108.555 429.639 109.556C429.102 110.558 428.369 111.322 427.44 111.851C426.515 112.375 425.475 112.637 424.32 112.637C423.157 112.637 422.113 112.373 421.188 111.844C420.264 111.316 419.533 110.551 418.996 109.55C418.459 108.548 418.19 107.336 418.19 105.913C418.19 104.485 418.459 103.271 418.996 102.269C419.533 101.268 420.264 100.505 421.188 99.9808C422.113 99.4524 423.157 99.1882 424.32 99.1882C425.475 99.1882 426.515 99.4524 427.44 99.9808C428.369 100.505 429.102 101.268 429.639 102.269C430.18 103.271 430.45 104.485 430.45 105.913ZM427.644 105.913C427.644 104.988 427.506 104.208 427.229 103.573C426.956 102.938 426.57 102.457 426.072 102.129C425.573 101.8 424.989 101.636 424.32 101.636C423.651 101.636 423.068 101.8 422.569 102.129C422.07 102.457 421.683 102.938 421.406 103.573C421.133 104.208 420.996 104.988 420.996 105.913C420.996 106.837 421.133 107.617 421.406 108.252C421.683 108.887 422.07 109.369 422.569 109.697C423.068 110.025 423.651 110.189 424.32 110.189C424.989 110.189 425.573 110.025 426.072 109.697C426.57 109.369 426.956 108.887 427.229 108.252C427.506 107.617 427.644 106.837 427.644 105.913ZM444.051 103.95H441.251C441.2 103.588 441.096 103.266 440.938 102.985C440.78 102.7 440.578 102.457 440.331 102.256C440.084 102.056 439.798 101.903 439.474 101.796C439.155 101.69 438.807 101.636 438.432 101.636C437.755 101.636 437.165 101.805 436.662 102.141C436.159 102.474 435.769 102.959 435.492 103.599C435.215 104.234 435.077 105.005 435.077 105.913C435.077 106.846 435.215 107.63 435.492 108.265C435.773 108.9 436.165 109.379 436.668 109.703C437.171 110.027 437.753 110.189 438.413 110.189C438.784 110.189 439.127 110.14 439.442 110.042C439.762 109.944 440.045 109.801 440.292 109.614C440.54 109.422 440.744 109.19 440.906 108.917C441.072 108.644 441.187 108.333 441.251 107.984L444.051 107.996C443.979 108.597 443.797 109.177 443.508 109.735C443.222 110.289 442.837 110.785 442.351 111.224C441.869 111.659 441.294 112.004 440.625 112.26C439.96 112.511 439.208 112.637 438.368 112.637C437.201 112.637 436.157 112.373 435.236 111.844C434.32 111.316 433.596 110.551 433.063 109.55C432.535 108.548 432.27 107.336 432.27 105.913C432.27 104.485 432.539 103.271 433.076 102.269C433.613 101.268 434.341 100.505 435.262 99.9808C436.182 99.4524 437.218 99.1882 438.368 99.1882C439.127 99.1882 439.83 99.2947 440.478 99.5078C441.13 99.7209 441.707 100.032 442.21 100.441C442.713 100.846 443.122 101.342 443.437 101.93C443.757 102.518 443.962 103.192 444.051 103.95ZM453.137 103.132C453.086 102.616 452.867 102.216 452.479 101.93C452.091 101.645 451.565 101.502 450.9 101.502C450.448 101.502 450.067 101.566 449.756 101.694C449.445 101.817 449.206 101.99 449.04 102.212C448.878 102.433 448.797 102.685 448.797 102.966C448.789 103.2 448.838 103.405 448.944 103.58C449.055 103.754 449.206 103.906 449.398 104.033C449.59 104.157 449.811 104.266 450.063 104.359C450.314 104.449 450.583 104.526 450.868 104.589L452.044 104.871C452.615 104.999 453.139 105.169 453.617 105.382C454.094 105.595 454.507 105.857 454.857 106.168C455.206 106.479 455.477 106.846 455.669 107.268C455.865 107.69 455.965 108.173 455.969 108.719C455.965 109.52 455.76 110.214 455.355 110.803C454.955 111.386 454.375 111.84 453.617 112.164C452.862 112.484 451.953 112.643 450.887 112.643C449.83 112.643 448.91 112.482 448.126 112.158C447.346 111.834 446.737 111.354 446.298 110.719C445.863 110.08 445.635 109.29 445.614 108.348H448.292C448.322 108.787 448.448 109.153 448.669 109.447C448.895 109.737 449.196 109.957 449.571 110.106C449.95 110.251 450.378 110.323 450.855 110.323C451.324 110.323 451.731 110.255 452.076 110.119C452.426 109.982 452.696 109.793 452.888 109.55C453.08 109.307 453.176 109.028 453.176 108.712C453.176 108.418 453.088 108.171 452.914 107.971C452.743 107.771 452.492 107.6 452.159 107.459C451.831 107.319 451.428 107.191 450.951 107.076L449.526 106.718C448.422 106.45 447.551 106.03 446.911 105.459C446.272 104.888 445.955 104.119 445.959 103.151C445.955 102.359 446.166 101.666 446.592 101.074C447.022 100.482 447.612 100.019 448.362 99.6868C449.112 99.3544 449.965 99.1882 450.919 99.1882C451.891 99.1882 452.739 99.3544 453.463 99.6868C454.192 100.019 454.759 100.482 455.164 101.074C455.568 101.666 455.777 102.352 455.79 103.132H453.137Z" fill="#415CA9"/>
<path d="M176.567 306.613L167.027 312.594L167.046 300.603L176.567 306.613Z" fill="#415CA9"/>
<path d="M193.692 306.234L184.674 311.887L184.692 300.552L193.692 306.234Z" fill="#415CA9"/>
<rect x="193.371" y="300.79" width="2.48538" height="10.6605" fill="#415CA9"/>
</g>
<rect opacity="0.7" x="154.004" y="146.758" width="146.57" height="6.11202" rx="3.05601" fill="#415CA9"/>
<rect opacity="0.7" x="316.178" y="146.758" width="65.7615" height="6.11202" rx="3.05601" fill="#D9D9D9"/>
<rect opacity="0.7" x="469.993" y="174.264" width="65.7615" height="6.11202" rx="3.05601" fill="#D9D9D9"/>
<g opacity="0.7">
<rect x="154.004" y="131.48" width="249.671" height="6.11202" rx="3.05601" fill="#415CA9"/>
<rect x="154.004" y="131.48" width="249.671" height="6.11202" rx="3.05601" fill="#415CA9"/>
<rect x="154.004" y="131.48" width="249.671" height="6.11202" rx="3.05601" fill="#415CA9"/>
<rect x="154.004" y="131.48" width="249.671" height="6.11202" rx="3.05601" fill="#415CA9"/>
</g>
<g opacity="0.7">
<rect x="419.278" y="131.48" width="107.002" height="6.11202" rx="3.05601" fill="#415CA9"/>
<rect x="419.278" y="131.48" width="107.002" height="6.11202" rx="3.05601" fill="#415CA9"/>
<rect x="419.278" y="131.48" width="107.002" height="6.11202" rx="3.05601" fill="#415CA9"/>
<rect x="419.278" y="131.48" width="107.002" height="6.11202" rx="3.05601" fill="#415CA9"/>
</g>
<g opacity="0.7">
<rect x="154.004" y="162.041" width="51.2717" height="6.11202" rx="3.05601" fill="#415CA9"/>
<rect x="154.004" y="162.041" width="51.2717" height="6.11202" rx="3.05601" fill="#415CA9"/>
<rect x="154.004" y="162.041" width="51.2717" height="6.11202" rx="3.05601" fill="#415CA9"/>
<rect x="154.004" y="162.041" width="51.2717" height="6.11202" rx="3.05601" fill="#D9D9D9"/>
</g>
<g opacity="0.7">
<rect x="218.65" y="162.041" width="108.674" height="6.11202" rx="3.05601" fill="#415CA9"/>
<rect x="218.65" y="162.041" width="108.674" height="6.11202" rx="3.05601" fill="#415CA9"/>
<rect x="218.65" y="162.041" width="108.674" height="6.11202" rx="3.05601" fill="#415CA9"/>
<rect x="218.65" y="162.041" width="108.674" height="6.11202" rx="3.05601" fill="#415CA9"/>
</g>
<g opacity="0.7">
<rect x="154.004" y="177.32" width="51.2717" height="6.11202" rx="3.05601" fill="#415CA9"/>
<rect x="154.004" y="177.32" width="51.2717" height="6.11202" rx="3.05601" fill="#415CA9"/>
<rect x="154.004" y="177.32" width="51.2717" height="6.11202" rx="3.05601" fill="#415CA9"/>
<rect x="154.004" y="177.32" width="51.2717" height="6.11202" rx="3.05601" fill="#7888B7"/>
</g>
<g opacity="0.7">
<rect x="218.65" y="177.32" width="188.368" height="6.11202" rx="3.05601" fill="#415CA9"/>
<rect x="218.65" y="177.32" width="188.368" height="6.11202" rx="3.05601" fill="#415CA9"/>
<rect x="218.65" y="177.32" width="188.368" height="6.11202" rx="3.05601" fill="#415CA9"/>
<rect x="218.65" y="177.32" width="188.368" height="6.11202" rx="3.05601" fill="#415CA9"/>
</g>
<g opacity="0.7">
<rect x="154.004" y="192.599" width="51.2717" height="6.11202" rx="3.05601" fill="#415CA9"/>
<rect x="154.004" y="192.599" width="51.2717" height="6.11202" rx="3.05601" fill="#415CA9"/>
<rect x="154.004" y="192.599" width="51.2717" height="6.11202" rx="3.05601" fill="#415CA9"/>
<rect x="154.004" y="192.599" width="51.2717" height="6.11202" rx="3.05601" fill="#7888B7"/>
</g>
<g opacity="0.7">
<rect x="218.65" y="192.599" width="70.7772" height="6.11202" rx="3.05601" fill="#415CA9"/>
<rect x="218.65" y="192.599" width="70.7772" height="6.11202" rx="3.05601" fill="#415CA9"/>
<rect x="218.65" y="192.599" width="70.7772" height="6.11202" rx="3.05601" fill="#415CA9"/>
<rect x="218.65" y="192.599" width="70.7772" height="6.11202" rx="3.05601" fill="#415CA9"/>
</g>
<g opacity="0.7">
<rect x="219.208" y="238.441" width="51.2717" height="6.11202" rx="3.05601" fill="#415CA9"/>
<rect x="219.208" y="238.441" width="51.2717" height="6.11202" rx="3.05601" fill="#415CA9"/>
<rect x="219.208" y="238.441" width="51.2717" height="6.11202" rx="3.05601" fill="#415CA9"/>
<rect x="219.208" y="238.441" width="51.2717" height="6.11202" rx="3.05601" fill="#7888B7"/>
</g>
<g opacity="0.7">
<rect x="283.854" y="238.441" width="154.372" height="6.11202" rx="3.05601" fill="#415CA9"/>
<rect x="283.854" y="238.441" width="154.372" height="6.11202" rx="3.05601" fill="#415CA9"/>
<rect x="283.854" y="238.441" width="154.372" height="6.11202" rx="3.05601" fill="#415CA9"/>
<rect x="283.854" y="238.441" width="154.372" height="6.11202" rx="3.05601" fill="#415CA9"/>
</g>
<g opacity="0.7">
<rect x="283.854" y="253.72" width="154.372" height="6.11202" rx="3.05601" fill="#415CA9"/>
<rect x="283.854" y="253.72" width="154.372" height="6.11202" rx="3.05601" fill="#415CA9"/>
<rect x="283.854" y="253.72" width="154.372" height="6.11202" rx="3.05601" fill="#415CA9"/>
<rect x="283.854" y="253.72" width="154.372" height="6.11202" rx="3.05601" fill="#415CA9"/>
</g>
<g opacity="0.7">
<rect x="392.528" y="253.72" width="45.6987" height="6.11202" rx="3.05601" fill="#415CA9"/>
<rect x="392.528" y="253.72" width="45.6987" height="6.11202" rx="3.05601" fill="#415CA9"/>
<rect x="392.528" y="253.72" width="45.6987" height="6.11202" rx="3.05601" fill="#415CA9"/>
<rect x="392.528" y="253.72" width="45.6987" height="6.11202" rx="3.05601" fill="#415CA9"/>
</g>
<g opacity="0.7">
<rect x="218.65" y="207.88" width="163.289" height="6.11202" rx="3.05601" fill="#415CA9"/>
<rect x="218.65" y="207.88" width="163.289" height="6.11202" rx="3.05601" fill="#415CA9"/>
<rect x="218.65" y="207.88" width="163.289" height="6.11202" rx="3.05601" fill="#415CA9"/>
<rect x="218.65" y="207.88" width="163.289" height="6.11202" rx="3.05601" fill="#415CA9"/>
</g>
<g opacity="0.7">
<rect x="372.465" y="192.599" width="163.289" height="6.11202" rx="3.05601" fill="#415CA9"/>
<rect x="372.465" y="192.599" width="163.289" height="6.11202" rx="3.05601" fill="#415CA9"/>
<rect x="372.465" y="192.599" width="163.289" height="6.11202" rx="3.05601" fill="#415CA9"/>
<rect x="372.465" y="192.599" width="163.289" height="6.11202" rx="3.05601" fill="#D9D9D9"/>
</g>
<g opacity="0.7">
<rect x="154.004" y="223.159" width="339.954" height="6.11202" rx="3.05601" fill="#415CA9"/>
<rect x="154.004" y="223.159" width="339.954" height="6.11202" rx="3.05601" fill="#415CA9"/>
<rect x="154.004" y="223.159" width="339.954" height="6.11202" rx="3.05601" fill="#415CA9"/>
<rect x="154.004" y="223.159" width="339.954" height="6.11202" rx="3.05601" fill="#415CA9"/>
</g>
<g opacity="0.7">
<rect x="154.004" y="223.159" width="339.954" height="6.11202" rx="3.05601" fill="#415CA9"/>
<rect x="154.004" y="223.159" width="339.954" height="6.11202" rx="3.05601" fill="#415CA9"/>
<rect x="154.004" y="223.159" width="339.954" height="6.11202" rx="3.05601" fill="#415CA9"/>
<rect x="154.004" y="223.159" width="339.954" height="6.11202" rx="3.05601" fill="#415CA9"/>
</g>
<g opacity="0.7">
<rect x="394.757" y="207.88" width="43.4695" height="6.11202" rx="3.05601" fill="#415CA9"/>
<rect x="394.757" y="207.88" width="43.4695" height="6.11202" rx="3.05601" fill="#415CA9"/>
<rect x="394.757" y="207.88" width="43.4695" height="6.11202" rx="3.05601" fill="#415CA9"/>
<rect x="394.757" y="207.88" width="43.4695" height="6.11202" rx="3.05601" fill="#415CA9"/>
</g>
<g opacity="0.7">
<rect x="340.143" y="162.041" width="41.7976" height="6.11202" rx="3.05601" fill="#415CA9"/>
<rect x="340.143" y="162.041" width="41.7976" height="6.11202" rx="3.05601" fill="#415CA9"/>
<rect x="340.143" y="162.041" width="41.7976" height="6.11202" rx="3.05601" fill="#415CA9"/>
<rect x="340.143" y="162.041" width="41.7976" height="6.11202" rx="3.05601" fill="#415CA9"/>
</g>
<mask id="mask0_159_1517" style="mask-type:alpha" maskUnits="userSpaceOnUse" x="124" y="159" width="438" height="132">
<rect x="124.969" y="159.362" width="436.588" height="131.489" fill="#D9D9D9"/>
</mask>
<g mask="url(#mask0_159_1517)">
<path d="M671.503 69.5615C672.794 74.3878 671.95 79.7338 669.011 85.5523C666.068 91.378 661.05 97.6178 654.105 104.162C640.215 117.249 618.769 131.409 591.345 145.779C536.51 174.512 457.971 203.984 368.731 227.364C279.491 250.744 196.507 263.589 134.492 265.469C103.476 266.41 77.7618 264.605 59.1496 260.033C49.8428 257.747 42.3639 254.781 36.8945 251.159C31.432 247.542 28.0274 243.309 26.7369 238.483C25.4464 233.656 26.2896 228.31 29.229 222.492C32.1721 216.666 37.1895 210.426 44.1351 203.882C58.0253 190.795 79.4708 176.635 106.895 162.265C161.73 133.532 240.269 104.06 329.509 80.6802C418.749 57.3003 501.733 44.4551 563.748 42.5749C594.764 41.6345 620.478 43.439 639.09 48.011C648.397 50.2972 655.876 53.2631 661.345 56.8849C666.808 60.5021 670.212 64.7353 671.503 69.5615Z" stroke="#8961CB" stroke-width="2"/>
</g>
<rect x="348.159" y="336.051" width="315.179" height="67.2607" rx="10" fill="url(#paint2_linear_159_1517)"/>
<rect x="437.316" y="346.068" width="214.457" height="46.7486" rx="10" fill="url(#paint3_linear_159_1517)"/>
<rect x="365.991" y="346.068" width="16.3854" height="46.7486" rx="5" fill="white"/>
<rect x="390.087" y="346.068" width="6.26502" height="46.7486" rx="3.13251" fill="white"/>
<rect x="372.738" y="268.79" width="315.179" height="67.2607" rx="10" fill="url(#paint4_linear_159_1517)"/>
<rect x="425.75" y="278.808" width="250.601" height="46.7486" rx="10" fill="url(#paint5_linear_159_1517)" fill-opacity="0.75"/>
<rect x="387.195" y="278.808" width="6.26502" height="46.7486" rx="3.13251" fill="white"/>
<rect x="398.762" y="278.808" width="6.26502" height="46.7486" rx="3.13251" fill="white"/>
<rect x="348.159" y="244.461" width="283.854" height="18.604" rx="5" fill="#F4F4F4"/>
<rect x="342.858" y="263.065" width="289.155" height="5.72432" rx="2.86216" fill="#CA74E8"/>
<rect x="342.858" y="238.737" width="289.155" height="5.72432" rx="2.86216" fill="#CA74E8"/>
<path d="M350.148 250.664C349.872 250.664 349.648 250.888 349.648 251.164C349.648 251.44 349.872 251.664 350.148 251.664V250.664ZM350.148 251.664H627.977V250.664H350.148V251.664Z" fill="#DBDBDB"/>
<path d="M350.148 256.276C349.872 256.276 349.648 256.5 349.648 256.776C349.648 257.053 349.872 257.276 350.148 257.276V256.276ZM350.148 257.276H627.977V256.276H350.148V257.276Z" fill="#DBDBDB"/>
<path d="M39.7707 279.881C36.6948 265.043 36.0488 244.309 52.0882 226.657C55.8559 222.513 60.2424 218.959 64.8697 215.793C80.7643 204.93 101.17 198.016 119.497 204.174C125.509 206.195 131.004 209.532 136.077 213.332C146.867 221.426 156.072 231.933 161.101 244.379C166.126 256.822 166.669 271.293 161.088 283.478C155.026 296.717 142.229 306.815 139.414 321.097C136.726 334.737 143.955 348.545 143.226 362.43C143.156 363.646 143.01 364.918 142.294 365.905C141.409 367.109 139.882 367.625 138.444 368.07C133.528 369.593 128.623 371.114 123.707 372.637C92.8908 382.176 94.1266 354.548 83.0252 334.73C70.3506 312.084 45.2396 306.276 39.7707 279.881Z" fill="url(#paint6_linear_159_1517)"/>
<path d="M39.7707 279.881C36.6948 265.043 36.0488 244.309 52.0882 226.657C55.8559 222.513 60.2424 218.959 64.8697 215.793C80.7643 204.93 101.17 198.016 119.497 204.174C125.509 206.195 131.004 209.532 136.077 213.332C146.867 221.426 156.072 231.933 161.101 244.379C166.126 256.822 166.669 271.293 161.088 283.478C155.026 296.717 142.229 306.815 139.414 321.097C136.726 334.737 143.955 348.545 143.226 362.43C143.156 363.646 143.01 364.918 142.294 365.905C141.409 367.109 139.882 367.625 138.444 368.07C133.528 369.593 128.623 371.114 123.707 372.637C92.8908 382.176 94.1266 354.548 83.0252 334.73C70.3506 312.084 45.2396 306.276 39.7707 279.881Z" fill="url(#paint7_linear_159_1517)"/>
<path d="M139.844 328.045C140.684 327.791 141.689 327.553 142.392 328.089C142.865 328.452 143.055 329.068 143.206 329.643C145.556 338.169 147.894 346.687 150.241 355.214C151.013 357.995 151.782 360.872 151.407 363.733C150.388 371.568 141.34 376.548 140.388 384.381C140.053 387.181 140.519 386.014 139.676 388.7C138.441 392.667 134.224 394.83 130.334 396.374C126.145 398.036 121.672 399.516 117.192 398.921C115.434 398.688 113.57 398.03 112.645 396.523C111.758 395.072 111.981 393.216 111.534 391.584C110.77 388.744 108.404 390.891 105.709 389.67C103.013 388.449 100.085 387.664 97.6674 385.967C92.0401 382.012 90.7678 374.46 88.5465 367.991C85.7561 359.891 79.1586 346.14 89.3935 340.113C92.4029 338.337 96.412 338.653 99.7692 338.204C105.806 337.393 111.776 335.689 117.666 334.199C125.107 332.312 132.498 330.259 139.844 328.045Z" fill="#CADFDF"/>
<path d="M105.455 334.489C102.642 320.379 93.4777 308.468 84.7778 296.946C82.9337 294.5 81.1662 290.805 83.4429 288.753C84.7326 287.59 86.8108 287.701 88.341 288.548C89.8644 289.397 90.9603 290.819 92.0163 292.193C93.0075 293.49 94.4735 294.942 96.0262 294.432C96.7474 294.194 97.2666 293.582 97.7314 292.968C99.6221 290.476 101.215 287.77 102.462 284.908C104.376 286.43 106.356 287.991 108.72 288.639C111.085 289.287 113.941 288.802 115.366 286.829C116.118 285.794 116.45 284.405 117.523 283.703C119.183 282.617 121.577 284.009 122.222 285.889C122.868 287.773 122.303 289.812 121.739 291.705C117.921 304.543 114.026 318.57 119.139 330.976" stroke="#144778" stroke-width="6.85919" stroke-miterlimit="10" stroke-linecap="round" stroke-linejoin="round"/>
<mask id="mask1_159_1517" style="mask-type:luminance" maskUnits="userSpaceOnUse" x="6" y="208" width="30" height="31">
<path d="M6.81421 213.335L29.7168 208.164L35.5493 233.277L12.6467 238.448L6.81421 213.335Z" fill="white"/>
</mask>
<g mask="url(#mask1_159_1517)">
<path d="M32.0795 231.251C30.5549 229.174 28.4018 227.642 26.2739 226.171C20.8543 222.429 15.3466 218.802 9.76837 215.305C10.3233 215.095 10.9676 215.099 11.5227 215.322" stroke="#144778" stroke-width="6.85919" stroke-miterlimit="10" stroke-linecap="round" stroke-linejoin="round"/>
</g>
<path d="M57.261 203.555C57.5849 203.247 57.3851 202.712 57.1647 202.32C52.8354 194.853 46.3617 188.475 43.7468 180.265" stroke="#144778" stroke-width="6.85919" stroke-miterlimit="10" stroke-linecap="round" stroke-linejoin="round"/>
<mask id="mask2_159_1517" style="mask-type:luminance" maskUnits="userSpaceOnUse" x="79" y="163" width="17" height="31">
<path d="M79.7324 165.991L89.3497 163.82L95.7604 191.422L86.1431 193.594L79.7324 165.991Z" fill="white"/>
</mask>
<g mask="url(#mask2_159_1517)">
<path d="M88.3646 190.442C86.1992 182.96 85.7969 174.991 87.1881 167.347" stroke="#144778" stroke-width="6.85919" stroke-miterlimit="10" stroke-linecap="round" stroke-linejoin="round"/>
</g>
<path d="M126.545 193.872C128.591 186.062 130.912 178.333 133.495 170.683C134.164 171.197 134.536 172.071 134.444 172.896" stroke="#144778" stroke-width="6.85919" stroke-miterlimit="10" stroke-linecap="round" stroke-linejoin="round"/>
<path d="M153.696 208.35C153.642 208.693 154.232 208.584 154.469 208.335C159.744 202.819 164.725 197.03 169.401 191.008" stroke="#144778" stroke-width="6.85919" stroke-miterlimit="10" stroke-linecap="round" stroke-linejoin="round"/>
<path d="M94.25 377.608C100.494 377.501 106.975 377.334 112.574 374.606" stroke="#144778" stroke-width="6.85919" stroke-miterlimit="10" stroke-linecap="round" stroke-linejoin="round"/>
<path d="M92.0249 366.361C95.225 366.041 98.4303 365.713 101.63 365.392" stroke="#144778" stroke-width="6.85919" stroke-miterlimit="10" stroke-linecap="round" stroke-linejoin="round"/>
<path d="M128.996 359.316C131.234 358.661 133.483 357.993 135.725 357.337C139.24 356.298 142.88 355.195 145.582 352.748" stroke="#144778" stroke-width="6.85919" stroke-miterlimit="10" stroke-linecap="round" stroke-linejoin="round"/>
<path d="M134.141 372.156C136.826 369.909 139.937 368.156 143.259 367.011" stroke="#144778" stroke-width="6.85919" stroke-miterlimit="10" stroke-linecap="round" stroke-linejoin="round"/>
<path d="M51.453 247.348C51.6047 246.504 51.9594 245.697 52.2972 244.912C53.6049 241.872 55.1604 239.068 57.1249 236.397C59.2508 233.505 61.6389 230.854 64.2183 228.359" stroke="#EECFFD" stroke-width="7" stroke-linecap="round"/>
<path d="M63.7426 243.332C63.7942 243.045 63.9148 242.77 64.0296 242.503C64.4742 241.47 65.0031 240.517 65.671 239.608C66.3938 238.625 67.2058 237.724 68.0828 236.875" stroke="#EECFFD" stroke-width="4" stroke-linecap="round"/>
<mask id="mask3_159_1517" style="mask-type:luminance" maskUnits="userSpaceOnUse" x="203" y="300" width="15" height="14">
<path d="M203.539 300.472H217.434V313.244H203.539V300.472Z" fill="white"/>
</mask>
<g mask="url(#mask3_159_1517)">
<path d="M203.551 304.659V309.025H206.633L210.485 312.664V301.02L206.633 304.659H203.551ZM213.952 306.842C213.952 305.557 213.166 304.448 212.026 303.913V309.775C213.166 309.236 213.952 308.126 213.952 306.842ZM212.026 300.46V301.962C214.252 302.588 215.878 304.535 215.878 306.842C215.878 309.149 214.252 311.096 212.026 311.721V313.224C215.111 312.562 217.419 309.96 217.419 306.842C217.419 303.724 215.111 301.122 212.026 300.46Z" fill="#415CA9"/>
</g>
<path d="M583.426 85.199C583.426 102.247 569.464 116.067 552.241 116.067C535.019 116.067 521.057 102.247 521.057 85.199C521.057 68.1512 535.019 54.3312 552.241 54.3312C569.464 54.3312 583.426 68.1512 583.426 85.199Z" fill="url(#paint8_linear_159_1517)"/>
<path d="M518.973 112.214L523.256 94.2383C523.458 93.3899 524.573 93.1888 525.059 93.9132L535.573 109.594C535.98 110.201 535.618 111.027 534.895 111.139L520.099 113.434C519.396 113.542 518.808 112.905 518.973 112.214Z" fill="#AA6AEA"/>
<path d="M532.934 87.0846V84.0846L544.934 78.8005V82.2522L536.718 85.5505L536.828 85.3715V85.7977L536.718 85.6187L544.934 88.917V92.3687L532.934 87.0846ZM556.141 74.292L550.516 95.1897H547.388L553.013 74.292H556.141ZM570.598 87.0846L558.598 92.3687V88.917L566.814 85.6187L566.703 85.7977V85.3715L566.814 85.5505L558.598 82.2522V78.8005L570.598 84.0846V87.0846Z" fill="#FBFAFF"/>
<defs>
<filter id="filter0_d_159_1517" x="120.209" y="65.5645" width="445.648" height="278.978" filterUnits="userSpaceOnUse" color-interpolation-filters="sRGB">
<feFlood flood-opacity="0" result="BackgroundImageFix"/>
<feColorMatrix in="SourceAlpha" type="matrix" values="0 0 0 0 0 0 0 0 0 0 0 0 0 0 0 0 0 0 127 0" result="hardAlpha"/>
<feOffset dy="4"/>
<feGaussianBlur stdDeviation="2"/>
<feComposite in2="hardAlpha" operator="out"/>
<feColorMatrix type="matrix" values="0 0 0 0 0 0 0 0 0 0 0 0 0 0 0 0 0 0 0.25 0"/>
<feBlend mode="normal" in2="BackgroundImageFix" result="effect1_dropShadow_159_1517"/>
<feBlend mode="normal" in="SourceGraphic" in2="effect1_dropShadow_159_1517" result="shape"/>
</filter>
<filter id="filter1_ii_159_1517" x="120.209" y="61.5645" width="445.648" height="278.978" filterUnits="userSpaceOnUse" color-interpolation-filters="sRGB">
<feFlood flood-opacity="0" result="BackgroundImageFix"/>
<feBlend mode="normal" in="SourceGraphic" in2="BackgroundImageFix" result="shape"/>
<feColorMatrix in="SourceAlpha" type="matrix" values="0 0 0 0 0 0 0 0 0 0 0 0 0 0 0 0 0 0 127 0" result="hardAlpha"/>
<feOffset dx="11" dy="-6"/>
<feGaussianBlur stdDeviation="2"/>
<feComposite in2="hardAlpha" operator="arithmetic" k2="-1" k3="1"/>
<feColorMatrix type="matrix" values="0 0 0 0 0 0 0 0 0 0 0 0 0 0 0 0 0 0 0.1 0"/>
<feBlend mode="normal" in2="shape" result="effect1_innerShadow_159_1517"/>
<feColorMatrix in="SourceAlpha" type="matrix" values="0 0 0 0 0 0 0 0 0 0 0 0 0 0 0 0 0 0 127 0" result="hardAlpha"/>
<feOffset dx="-9" dy="11"/>
<feGaussianBlur stdDeviation="2"/>
<feComposite in2="hardAlpha" operator="arithmetic" k2="-1" k3="1"/>
<feColorMatrix type="matrix" values="0 0 0 0 0 0 0 0 0 0 0 0 0 0 0 0 0 0 0.1 0"/>
<feBlend mode="normal" in2="effect1_innerShadow_159_1517" result="effect2_innerShadow_159_1517"/>
</filter>
<filter id="filter2_ii_159_1517" x="137.616" y="80.8557" width="410.835" height="242.397" filterUnits="userSpaceOnUse" color-interpolation-filters="sRGB">
<feFlood flood-opacity="0" result="BackgroundImageFix"/>
<feBlend mode="normal" in="SourceGraphic" in2="BackgroundImageFix" result="shape"/>
<feColorMatrix in="SourceAlpha" type="matrix" values="0 0 0 0 0 0 0 0 0 0 0 0 0 0 0 0 0 0 127 0" result="hardAlpha"/>
<feOffset dx="5" dy="4"/>
<feGaussianBlur stdDeviation="1"/>
<feComposite in2="hardAlpha" operator="arithmetic" k2="-1" k3="1"/>
<feColorMatrix type="matrix" values="0 0 0 0 0 0 0 0 0 0 0 0 0 0 0 0 0 0 0.25 0"/>
<feBlend mode="normal" in2="shape" result="effect1_innerShadow_159_1517"/>
<feColorMatrix in="SourceAlpha" type="matrix" values="0 0 0 0 0 0 0 0 0 0 0 0 0 0 0 0 0 0 127 0" result="hardAlpha"/>
<feOffset dx="-4" dy="4"/>
<feGaussianBlur stdDeviation="1"/>
<feComposite in2="hardAlpha" operator="arithmetic" k2="-1" k3="1"/>
<feColorMatrix type="matrix" values="0 0 0 0 0 0 0 0 0 0 0 0 0 0 0 0 0 0 0.25 0"/>
<feBlend mode="normal" in2="effect1_innerShadow_159_1517" result="effect2_innerShadow_159_1517"/>
</filter>
<linearGradient id="paint0_linear_159_1517" x1="343.033" y1="69.5645" x2="343.033" y2="366.18" gradientUnits="userSpaceOnUse">
<stop offset="0.140625" stop-color="#415CA9"/>
<stop offset="0.603841" stop-color="#A89EE1"/>
<stop offset="1" stop-color="#8F69CE"/>
</linearGradient>
<linearGradient id="paint1_linear_159_1517" x1="229.206" y1="280.774" x2="229.206" y2="289.007" gradientUnits="userSpaceOnUse">
<stop stop-color="#415CA9"/>
<stop offset="0.9999" stop-color="#94A6E4"/>
<stop offset="1" stop-color="#9538CE"/>
</linearGradient>
<linearGradient id="paint2_linear_159_1517" x1="505.749" y1="336.051" x2="519.568" y2="403.155" gradientUnits="userSpaceOnUse">
<stop stop-color="#CB74E9"/>
<stop offset="0.914108" stop-color="#A49BD6"/>
</linearGradient>
<linearGradient id="paint3_linear_159_1517" x1="527.537" y1="341.763" x2="624.748" y2="390.257" gradientUnits="userSpaceOnUse">
<stop stop-color="#E1E1E1"/>
<stop offset="0.475695" stop-color="white"/>
<stop offset="1" stop-color="#DBDBDB"/>
</linearGradient>
<linearGradient id="paint4_linear_159_1517" x1="474.077" y1="200.653" x2="370.632" y2="469.156" gradientUnits="userSpaceOnUse">
<stop stop-color="#B048DE"/>
<stop offset="1" stop-color="#603EB7"/>
</linearGradient>
<linearGradient id="paint5_linear_159_1517" x1="551.05" y1="278.808" x2="529.954" y2="342.294" gradientUnits="userSpaceOnUse">
<stop stop-color="#A2B9E1"/>
<stop offset="0.611111" stop-color="#CBDAFF"/>
<stop offset="1" stop-color="#C0CCF1"/>
</linearGradient>
<linearGradient id="paint6_linear_159_1517" x1="87.3788" y1="204.466" x2="125.307" y2="372.445" gradientUnits="userSpaceOnUse">
<stop stop-color="#B048DE"/>
<stop offset="0.423611" stop-color="#A877EF"/>
<stop offset="1" stop-color="#415CA9"/>
</linearGradient>
<linearGradient id="paint7_linear_159_1517" x1="73.4279" y1="223.81" x2="154.145" y2="167.39" gradientUnits="userSpaceOnUse">
<stop stop-color="#8DBCD6" stop-opacity="0"/>
<stop offset="0.641087" stop-color="#98CBDD"/>
</linearGradient>
<linearGradient id="paint8_linear_159_1517" x1="532.802" y1="117.67" x2="590.47" y2="87.9289" gradientUnits="userSpaceOnUse">
<stop offset="0.149631" stop-color="#AA6AEA"/>
<stop offset="0.496699" stop-color="#D4B0F9"/>
<stop offset="1" stop-color="#D3A6FF"/>
</linearGradient>
</defs>
</svg>
