<?xml version="1.0" encoding="utf-8"?>
<?xml-stylesheet href="./css/style-animation.css" type="text/css"?>
<svg id="NewLogo2" class="Line" data-name="Layer 1" xmlns="http://www.w3.org/2000/svg" viewBox="0 0 1080 1080">
    <defs>
        <style>
            .cls-1 {
                fill: #fff;
            }
        </style>
    </defs>
    <polygon class="cls-1"
        points="554.72 599.82 554.72 580.18 539.99 572.98 525.26 580.18 525.26 599.82 539.99 607.43 554.72 599.82" />
    <polygon class="cls-1"
        points="588.6 631.72 539.99 607.43 539.99 588.42 554.72 580.18 603.36 604.65 603.38 624.09 588.6 631.72" />
    <polygon class="cls-1"
        points="491.29 631.85 539.9 607.56 539.9 588.55 525.17 580.31 476.54 604.78 476.51 624.22 491.29 631.85" />
    <polygon class="cls-1"
        points="554.63 414.1 554.72 160.7 539.99 153.5 525.26 160.7 525.17 414.1 539.9 421.71 554.63 414.1" />
    <path class="cls-1"
        d="M614.91,444.72,412.64,343.57l-9.27-4.73-.09.05L278.91,276.7,202,334.21l.19,96,115.35,57.69V833.3l85.83,43.09L489.2,833.3V573.78l49,24.5,77.49-57.23ZM528.48,566.21l-135-67.46-.18,339.42-53.84-27-.18-339.48-129.1-64.52-.11-60.24,178.63,89,4.82,2.39h0l135.11,67.32Z" />
    <polygon class="cls-1"
        points="222.63 757.13 339.43 699.8 339.43 682.73 323.57 673.37 209.04 730.34 209.02 749.78 222.63 757.13" />
    <path class="cls-1" d="M525.26,141.19,180.6,314.62a.49.49,0,0,0-.28.44v19.33L195.05,342,540,168.44V147.59Z" />
    <polygon class="cls-1"
        points="761.39 404.14 885.49 341.94 885.5 322.86 870.78 314.74 746.71 376.83 746.71 396.47 761.39 404.14" />
    <path class="cls-1"
        d="M540.21,134.1,885.49,307.32V326.8l-14.73,7.36L525.26,160.83V141.19l14.51-7.09A.49.49,0,0,1,540.21,134.1Z" />
    <path class="cls-1"
        d="M761.44,381.94l-85.83-43.1-85.83,43.1V832.66l85.83,43.73,85.83-43.73Zm-22.23,430.2-53.83,27-.22-402.23L739.43,410Z" />
    <polygon class="cls-1"
        points="870.17 762.96 739.28 698.87 739.28 679.23 754.01 672.03 884.9 736.12 884.9 755.64 870.17 762.96" />
    <path class="cls-1"
        d="M870.76,314.5,870.17,763l14.73,7.61,14.47-7.49a.49.49,0,0,0,.27-.44l.58-447.83a.51.51,0,0,0-.28-.45l-14.45-7Z" />
    <path class="cls-1"
        d="M539.92,945.89l345-175.32V750.09l-14.73-6.77L526.1,919.21l.26,20,13.11,6.66A.51.51,0,0,0,539.92,945.89Z" />
    <path class="cls-1" d="M209.81,334.39l-.13,428.74-15.87,7.29-13.77-7a.49.49,0,0,1-.28-.44l.56-428.57,14.76-7.89Z" />
    <polygon class="cls-1"
        points="539.72 946.01 193.85 770.42 193.85 753.35 209.71 743.99 553.3 919.22 553.05 939.23 539.72 946.01" />
</svg>